<svg xmlns="http://www.w3.org/2000/svg" xmlns:xlink="http://www.w3.org/1999/xlink" width="600" zoomAndPan="magnify" viewBox="0 0 450 449.999984" height="600" preserveAspectRatio="xMidYMid meet" version="1.0"><defs><g/><clipPath id="b031a449b1"><path d="M 171.605469 109.207031 L 278.105469 109.207031 L 278.105469 196 L 171.605469 196 Z M 171.605469 109.207031 " clip-rule="nonzero"/></clipPath><clipPath id="aec539f5a4"><path d="M 208 200 L 211 200 L 211 205.207031 L 208 205.207031 Z M 208 200 " clip-rule="nonzero"/></clipPath></defs><g fill="#000000" fill-opacity="1"><g transform="translate(114.356253, 270.399912)"><g><path d="M 7.625 -7.6875 L 7.265625 -6.9375 C 7.265625 -6.394531 8.023438 -5.875 9.546875 -5.375 C 11.066406 -4.882812 12.734375 -4.640625 14.546875 -4.640625 C 16.359375 -4.640625 18.351562 -4.910156 20.53125 -5.453125 C 22.71875 -5.992188 24.613281 -6.65625 26.21875 -7.4375 C 27.832031 -8.21875 29.164062 -9.035156 30.21875 -9.890625 C 31.269531 -10.742188 31.796875 -11.488281 31.796875 -12.125 C 31.796875 -12.925781 30.863281 -13.671875 29 -14.359375 C 27.144531 -15.054688 24.441406 -15.816406 20.890625 -16.640625 C 17.335938 -17.472656 14.738281 -18.519531 13.09375 -19.78125 C 11.445312 -21.050781 10.625 -22.59375 10.625 -24.40625 C 10.625 -26.226562 11.273438 -27.96875 12.578125 -29.625 C 13.878906 -31.28125 15.578125 -32.75 17.671875 -34.03125 C 19.765625 -35.320312 22.050781 -36.46875 24.53125 -37.46875 C 29.65625 -39.539062 34.410156 -40.578125 38.796875 -40.578125 C 40.472656 -40.578125 41.953125 -40.425781 43.234375 -40.125 C 45.691406 -39.550781 46.921875 -38.789062 46.921875 -37.84375 C 46.921875 -36.894531 46.835938 -36.242188 46.671875 -35.890625 C 46.503906 -35.546875 46.367188 -35.316406 46.265625 -35.203125 C 46.160156 -35.097656 46.03125 -34.988281 45.875 -34.875 C 45.71875 -34.757812 45.601562 -34.675781 45.53125 -34.625 C 44.707031 -33.9375 42.460938 -33.507812 38.796875 -33.34375 C 37.523438 -33.28125 36.832031 -33.210938 36.71875 -33.140625 C 36.601562 -33.066406 36.503906 -33.03125 36.421875 -33.03125 C 36.335938 -33.03125 36.238281 -33.101562 36.125 -33.25 C 36.019531 -33.40625 35.96875 -33.648438 35.96875 -33.984375 C 35.96875 -34.316406 36.332031 -34.929688 37.0625 -35.828125 C 34.78125 -35.691406 32.347656 -35.164062 29.765625 -34.25 C 27.191406 -33.34375 24.953125 -32.316406 23.046875 -31.171875 C 21.148438 -30.023438 19.566406 -28.894531 18.296875 -27.78125 C 17.035156 -26.675781 16.40625 -25.894531 16.40625 -25.4375 C 16.40625 -24.988281 16.546875 -24.613281 16.828125 -24.3125 C 17.609375 -23.476562 19.773438 -22.601562 23.328125 -21.6875 C 27.023438 -20.738281 29.488281 -19.972656 30.71875 -19.390625 C 31.945312 -18.816406 32.960938 -18.269531 33.765625 -17.75 C 34.578125 -17.226562 35.226562 -16.695312 35.71875 -16.15625 C 36.851562 -14.851562 37.421875 -13.53125 37.421875 -12.1875 C 37.421875 -10.84375 37.0625 -9.582031 36.34375 -8.40625 C 35.625 -7.238281 34.539062 -6.101562 33.09375 -5 C 31.65625 -3.90625 29.957031 -2.925781 28 -2.0625 C 23.71875 -0.144531 18.613281 0.8125 12.6875 0.8125 C 8.363281 0.8125 5.609375 -0.332031 4.421875 -2.625 C 4.097656 -3.207031 3.9375 -3.804688 3.9375 -4.421875 C 3.9375 -5.046875 4.082031 -5.609375 4.375 -6.109375 C 4.664062 -6.617188 5.015625 -7.003906 5.421875 -7.265625 C 6.222656 -7.765625 6.789062 -8.015625 7.125 -8.015625 C 7.457031 -8.015625 7.625 -7.90625 7.625 -7.6875 Z M 7.625 -7.6875 "/></g></g></g><g fill="#000000" fill-opacity="1"><g transform="translate(152.614972, 270.399912)"><g><path d="M 23.0625 -21.234375 C 24.476562 -21.234375 25.1875 -20.75 25.1875 -19.78125 C 25.1875 -19.257812 25.0625 -18.878906 24.8125 -18.640625 C 24.570312 -18.398438 24.054688 -17.59375 23.265625 -16.21875 C 22.472656 -14.851562 21.597656 -13.101562 20.640625 -10.96875 C 19.679688 -8.832031 19.0625 -7.007812 18.78125 -5.5 C 18.726562 -5.3125 18.703125 -5.050781 18.703125 -4.71875 C 18.703125 -3.695312 18.976562 -3.1875 19.53125 -3.1875 C 20.09375 -3.1875 20.753906 -3.453125 21.515625 -3.984375 C 22.285156 -4.515625 22.96875 -5.082031 23.5625 -5.6875 C 24.15625 -6.289062 24.734375 -6.910156 25.296875 -7.546875 C 25.867188 -8.179688 26.210938 -8.546875 26.328125 -8.640625 C 26.441406 -8.734375 26.609375 -8.78125 26.828125 -8.78125 C 27.179688 -8.78125 27.394531 -8.507812 27.46875 -7.96875 C 27.539062 -7.425781 27.578125 -6.863281 27.578125 -6.28125 C 27.578125 -5.707031 27.523438 -5.3125 27.421875 -5.09375 C 26.878906 -4.03125 25.6875 -2.75 23.84375 -1.25 C 22.007812 0.238281 20.34375 0.984375 18.84375 0.984375 C 17.34375 0.984375 16.238281 0.523438 15.53125 -0.390625 C 14.820312 -1.304688 14.46875 -2.316406 14.46875 -3.421875 C 14.46875 -4.535156 14.65625 -5.507812 15.03125 -6.34375 C 13.488281 -4.332031 11.710938 -2.628906 9.703125 -1.234375 C 7.703125 0.160156 6.066406 0.859375 4.796875 0.859375 C 3.535156 0.859375 2.503906 0.476562 1.703125 -0.28125 C 0.679688 -1.226562 0.171875 -2.546875 0.171875 -4.234375 C 0.171875 -5.921875 0.546875 -7.613281 1.296875 -9.3125 C 2.054688 -11.019531 3.050781 -12.578125 4.28125 -13.984375 C 5.507812 -15.390625 6.859375 -16.671875 8.328125 -17.828125 C 11.421875 -20.253906 14.269531 -21.46875 16.875 -21.46875 C 17.882812 -21.46875 18.707031 -21.296875 19.34375 -20.953125 C 19.976562 -20.617188 20.378906 -20.203125 20.546875 -19.703125 C 20.992188 -20.367188 21.367188 -20.789062 21.671875 -20.96875 C 21.984375 -21.144531 22.445312 -21.234375 23.0625 -21.234375 Z M 19.34375 -18.140625 C 16.15625 -18.140625 12.859375 -16.367188 9.453125 -12.828125 C 8.234375 -11.554688 7.113281 -10.035156 6.09375 -8.265625 C 5.082031 -6.503906 4.578125 -5.296875 4.578125 -4.640625 C 4.578125 -3.984375 4.765625 -3.65625 5.140625 -3.65625 C 5.660156 -3.65625 7.113281 -4.6875 9.5 -6.75 C 11.882812 -8.8125 13.46875 -10.328125 14.25 -11.296875 C 15.101562 -12.367188 16.800781 -14.648438 19.34375 -18.140625 Z M 19.34375 -18.140625 "/></g></g></g><g fill="#000000" fill-opacity="1"><g transform="translate(175.922329, 270.399912)"><g><path d="M 16.328125 -4.296875 C 16.328125 -3.484375 16.882812 -3.078125 18 -3.078125 C 18.59375 -3.078125 19.34375 -3.375 20.25 -3.96875 C 21.15625 -4.5625 21.96875 -5.210938 22.6875 -5.921875 C 24.625 -7.835938 25.722656 -8.796875 25.984375 -8.796875 C 26.472656 -8.796875 26.71875 -8.097656 26.71875 -6.703125 C 26.71875 -5.304688 26.28125 -4.347656 25.40625 -3.828125 C 22.738281 -1.421875 20.679688 0.0390625 19.234375 0.5625 C 18.410156 0.84375 17.503906 0.972656 16.515625 0.953125 C 15.523438 0.929688 14.546875 0.503906 13.578125 -0.328125 C 12.609375 -1.171875 12.125 -2.191406 12.125 -3.390625 C 12.125 -4.597656 12.441406 -5.960938 13.078125 -7.484375 C 13.710938 -9.015625 14.359375 -10.320312 15.015625 -11.40625 C 15.679688 -12.5 16.5 -13.765625 17.46875 -15.203125 C 18.4375 -16.648438 18.945312 -17.550781 19 -17.90625 L 18.953125 -17.96875 C 18.335938 -17.914062 16.8125 -16.703125 14.375 -14.328125 C 11.945312 -11.960938 9.941406 -9.90625 8.359375 -8.15625 C 6.773438 -6.40625 4.882812 -4.066406 2.6875 -1.140625 C 2.070312 -0.335938 1.566406 0.0625 1.171875 0.0625 C 0.785156 0.0625 0.265625 -0.0625 -0.390625 -0.3125 C -1.054688 -0.570312 -1.460938 -0.753906 -1.609375 -0.859375 C -1.765625 -0.972656 -1.84375 -1.140625 -1.84375 -1.359375 C -1.84375 -1.585938 -1.773438 -1.863281 -1.640625 -2.1875 C -1.515625 -2.519531 -1.390625 -2.789062 -1.265625 -3 C -1.148438 -3.21875 -0.953125 -3.550781 -0.671875 -4 C -0.390625 -4.445312 0.160156 -5.390625 0.984375 -6.828125 C 1.816406 -8.273438 3.085938 -10.429688 4.796875 -13.296875 C 6.515625 -16.171875 7.539062 -17.90625 7.875 -18.5 C 8.582031 -19.726562 9.160156 -20.625 9.609375 -21.1875 C 10.453125 -22.25 11.867188 -22.78125 13.859375 -22.78125 C 14.304688 -22.78125 14.53125 -22.5 14.53125 -21.9375 C 14.53125 -21.0625 13.71875 -19.410156 12.09375 -16.984375 L 10.921875 -15.234375 C 14.148438 -18.804688 16.875 -21.066406 19.09375 -22.015625 C 20.164062 -22.484375 21.132812 -22.71875 22 -22.71875 C 22.875 -22.71875 23.566406 -22.484375 24.078125 -22.015625 C 24.585938 -21.554688 24.84375 -21.039062 24.84375 -20.46875 C 24.84375 -19.90625 24.644531 -19.226562 24.25 -18.4375 C 23.863281 -17.644531 23.46875 -16.9375 23.0625 -16.3125 C 22.664062 -15.6875 22.140625 -14.894531 21.484375 -13.9375 C 20.835938 -12.988281 20.484375 -12.472656 20.421875 -12.390625 C 20.367188 -12.304688 20.222656 -12.082031 19.984375 -11.71875 C 19.753906 -11.351562 19.582031 -11.085938 19.46875 -10.921875 C 19.363281 -10.753906 19.179688 -10.460938 18.921875 -10.046875 C 18.660156 -9.628906 18.445312 -9.28125 18.28125 -9 C 18.125 -8.71875 17.929688 -8.367188 17.703125 -7.953125 C 17.472656 -7.546875 17.285156 -7.191406 17.140625 -6.890625 C 17.003906 -6.597656 16.863281 -6.273438 16.71875 -5.921875 C 16.457031 -5.273438 16.328125 -4.734375 16.328125 -4.296875 Z M 16.328125 -4.296875 "/></g></g></g><g fill="#000000" fill-opacity="1"><g transform="translate(198.279507, 270.399912)"><g><path d="M 20.953125 -36 L 22.109375 -35.71875 C 22.273438 -35.71875 22.421875 -35.632812 22.546875 -35.46875 C 22.679688 -35.300781 22.75 -35.140625 22.75 -34.984375 C 22.75 -34.835938 22.550781 -34.4375 22.15625 -33.78125 C 21.769531 -33.132812 21.3125 -32.394531 20.78125 -31.5625 C 20.25 -30.738281 19.960938 -30.285156 19.921875 -30.203125 C 21.378906 -30.316406 22.410156 -30.375 23.015625 -30.375 C 23.617188 -30.375 24.03125 -30.332031 24.25 -30.25 C 24.476562 -30.164062 24.734375 -29.929688 25.015625 -29.546875 C 25.304688 -29.171875 25.570312 -28.882812 25.8125 -28.6875 C 26.0625 -28.488281 26.1875 -28.191406 26.1875 -27.796875 C 26.1875 -27.410156 25.945312 -27.082031 25.46875 -26.8125 C 25 -26.539062 24.492188 -26.378906 23.953125 -26.328125 C 19.628906 -25.898438 17.242188 -25.675781 16.796875 -25.65625 C 15.285156 -23.34375 13.175781 -19.738281 10.46875 -14.84375 C 7.757812 -9.957031 6.316406 -6.898438 6.140625 -5.671875 C 6.066406 -5.109375 6.03125 -4.648438 6.03125 -4.296875 C 6.03125 -3.578125 6.410156 -3.21875 7.171875 -3.21875 C 7.941406 -3.21875 8.789062 -3.507812 9.71875 -4.09375 C 10.65625 -4.675781 11.515625 -5.316406 12.296875 -6.015625 C 14.378906 -7.867188 15.5 -8.796875 15.65625 -8.796875 C 16.132812 -8.796875 16.375 -7.957031 16.375 -6.28125 C 16.375 -5.375 15.957031 -4.554688 15.125 -3.828125 C 13.238281 -2.203125 11.648438 -0.976562 10.359375 -0.15625 C 9.078125 0.65625 7.796875 1.0625 6.515625 1.0625 C 6.234375 1.0625 5.972656 1.035156 5.734375 0.984375 C 4.242188 0.703125 3.144531 0.15625 2.4375 -0.65625 C 1.738281 -1.46875 1.394531 -2.5625 1.40625 -3.9375 C 1.414062 -5.320312 1.828125 -6.992188 2.640625 -8.953125 C 3.453125 -10.921875 4.472656 -13.015625 5.703125 -15.234375 C 7.710938 -18.847656 9.722656 -22.238281 11.734375 -25.40625 L 10.671875 -25.265625 C 8.515625 -25.023438 7.257812 -24.90625 6.90625 -24.90625 L 6.65625 -24.90625 C 6.113281 -24.90625 5.585938 -25.007812 5.078125 -25.21875 C 4.578125 -25.4375 4.328125 -25.703125 4.328125 -26.015625 C 4.328125 -26.335938 4.460938 -26.644531 4.734375 -26.9375 C 5.003906 -27.238281 5.164062 -27.472656 5.21875 -27.640625 C 5.351562 -28.046875 5.84375 -28.5 6.6875 -29 C 7.539062 -29.507812 8.179688 -29.773438 8.609375 -29.796875 C 9.035156 -29.828125 9.445312 -29.851562 9.84375 -29.875 C 10.25 -29.894531 10.695312 -29.910156 11.1875 -29.921875 C 11.6875 -29.941406 12.066406 -29.960938 12.328125 -29.984375 L 14.84375 -30.09375 C 16.40625 -32.445312 17.476562 -33.957031 18.0625 -34.625 C 18.65625 -35.289062 19 -35.65625 19.09375 -35.71875 C 19.1875 -35.789062 19.367188 -35.828125 19.640625 -35.828125 Z M 20.953125 -36 "/></g></g></g><g fill="#000000" fill-opacity="1"><g transform="translate(210.575954, 270.399912)"><g><path d="M 10.203125 9.28125 C 10.109375 9.375 9.820312 9.84375 9.34375 10.6875 C 8.875 11.539062 8.367188 12.398438 7.828125 13.265625 C 7.285156 14.128906 6.617188 14.953125 5.828125 15.734375 C 5.035156 16.515625 4.375 16.9375 3.84375 17 C 3.3125 17.070312 2.972656 17.109375 2.828125 17.109375 C 1.109375 17.109375 0.25 16.238281 0.25 14.5 C 0.25 12.46875 1.300781 10.09375 3.40625 7.375 C 4.207031 6.351562 5.210938 5.25 6.421875 4.0625 C 7.640625 2.882812 8.300781 2.210938 8.40625 2.046875 C 8.519531 1.890625 9.921875 -0.71875 12.609375 -5.78125 C 10.816406 -3.820312 9.15625 -2.234375 7.625 -1.015625 C 6.101562 0.203125 4.632812 0.882812 3.21875 1.03125 L 3.015625 1.03125 C 2.285156 1.03125 1.566406 0.789062 0.859375 0.3125 C 0.148438 -0.15625 -0.203125 -0.988281 -0.203125 -2.1875 C -0.203125 -3.945312 0.273438 -5.660156 1.234375 -7.328125 C 1.566406 -7.898438 2.144531 -8.875 2.96875 -10.25 C 3.800781 -11.632812 4.570312 -12.96875 5.28125 -14.25 C 5.945312 -15.28125 6.632812 -16.472656 7.34375 -17.828125 C 8.050781 -19.191406 8.59375 -20.164062 8.96875 -20.75 C 9.34375 -21.332031 9.695312 -21.625 10.03125 -21.625 C 10.363281 -21.625 10.796875 -21.414062 11.328125 -21 C 11.859375 -20.582031 12.125 -20.082031 12.125 -19.5 C 12.125 -18.925781 10.90625 -16.421875 8.46875 -11.984375 C 6.03125 -7.554688 4.8125 -5.035156 4.8125 -4.421875 C 4.8125 -4.265625 4.882812 -4.1875 5.03125 -4.1875 C 5.53125 -4.1875 6.640625 -4.898438 8.359375 -6.328125 C 10.085938 -7.753906 11.992188 -9.585938 14.078125 -11.828125 C 16.410156 -14.296875 18.238281 -16.554688 19.5625 -18.609375 C 19.726562 -18.867188 19.863281 -19.066406 19.96875 -19.203125 C 20.070312 -19.347656 20.203125 -19.535156 20.359375 -19.765625 C 20.515625 -20.003906 20.644531 -20.1875 20.75 -20.3125 C 20.851562 -20.445312 20.972656 -20.601562 21.109375 -20.78125 C 21.253906 -20.957031 21.378906 -21.09375 21.484375 -21.1875 C 21.597656 -21.28125 21.722656 -21.375 21.859375 -21.46875 C 22.054688 -21.65625 22.28125 -21.75 22.53125 -21.75 C 22.789062 -21.75 23.175781 -21.691406 23.6875 -21.578125 C 24.195312 -21.460938 24.503906 -21.335938 24.609375 -21.203125 C 24.710938 -21.078125 24.816406 -20.957031 24.921875 -20.84375 C 25.109375 -20.644531 25.203125 -20.457031 25.203125 -20.28125 C 25.203125 -20.101562 25.128906 -19.867188 24.984375 -19.578125 C 24.835938 -19.285156 23.972656 -17.804688 22.390625 -15.140625 C 17.734375 -7.285156 14.523438 -1.550781 12.765625 2.0625 C 15.597656 -0.320312 19.585938 -3.851562 24.734375 -8.53125 C 24.941406 -8.695312 25.144531 -8.78125 25.34375 -8.78125 C 25.925781 -8.78125 26.21875 -7.894531 26.21875 -6.125 C 26.21875 -5.601562 26.125 -5.257812 25.9375 -5.09375 C 20.363281 -0.800781 15.117188 3.988281 10.203125 9.28125 Z M 10.203125 9.28125 "/></g></g></g><g fill="#000000" fill-opacity="1"><g transform="translate(232.905185, 270.399912)"><g><path d="M 17.25 -29.984375 C 16.632812 -29.535156 16.328125 -29.035156 16.328125 -28.484375 C 16.328125 -27.941406 16.734375 -27.671875 17.546875 -27.671875 C 17.898438 -27.671875 18.359375 -27.769531 18.921875 -27.96875 L 18.953125 -27.96875 C 19.046875 -27.96875 19.09375 -27.773438 19.09375 -27.390625 C 19.09375 -27.015625 19.050781 -26.789062 18.96875 -26.71875 C 17.050781 -25.351562 15.429688 -24.671875 14.109375 -24.671875 C 12.785156 -24.671875 11.828125 -25.039062 11.234375 -25.78125 C 10.640625 -26.53125 10.34375 -27.503906 10.34375 -28.703125 C 10.34375 -29.910156 11.003906 -31.1875 12.328125 -32.53125 C 13.648438 -33.882812 15.425781 -35.132812 17.65625 -36.28125 C 19.894531 -37.425781 22.664062 -38.375 25.96875 -39.125 C 29.28125 -39.875 33 -40.25 37.125 -40.25 C 41.25 -40.25 44.695312 -39.441406 47.46875 -37.828125 C 50.25 -36.210938 51.640625 -34.375 51.640625 -32.3125 C 51.640625 -30.257812 50.914062 -28.171875 49.46875 -26.046875 C 48.03125 -23.921875 46.222656 -22.070312 44.046875 -20.5 C 41.878906 -18.925781 39.472656 -17.632812 36.828125 -16.625 C 34.179688 -15.625 31.816406 -15.125 29.734375 -15.125 C 27.648438 -15.125 26.03125 -15.960938 24.875 -17.640625 C 22.039062 -13.179688 20.117188 -10.132812 19.109375 -8.5 C 18.109375 -6.875 17.257812 -5.503906 16.5625 -4.390625 C 15.863281 -3.285156 15.320312 -2.414062 14.9375 -1.78125 C 14.550781 -1.15625 14.351562 -0.832031 14.34375 -0.8125 C 13.945312 -0.382812 13.523438 -0.171875 13.078125 -0.171875 L 11.703125 0.078125 L 11.03125 0.03125 L 10.5625 0.03125 C 9.46875 0.03125 8.921875 -0.3125 8.921875 -1 C 8.921875 -1.875 10.753906 -5.171875 14.421875 -10.890625 C 18.085938 -16.617188 21.546875 -21.8125 24.796875 -26.46875 C 28.046875 -31.125 29.941406 -33.738281 30.484375 -34.3125 C 31.023438 -34.894531 31.503906 -35.234375 31.921875 -35.328125 C 32.347656 -35.429688 33.023438 -35.484375 33.953125 -35.484375 L 35.359375 -35.484375 C 35.597656 -35.484375 35.71875 -35.289062 35.71875 -34.90625 C 35.71875 -34.53125 35.671875 -34.269531 35.578125 -34.125 C 33.929688 -31.832031 30.96875 -27.304688 26.6875 -20.546875 C 26.832031 -20.242188 27.078125 -20.054688 27.421875 -19.984375 C 27.773438 -19.910156 28.144531 -19.875 28.53125 -19.875 L 29.34375 -19.875 C 31.0625 -19.875 32.914062 -20.285156 34.90625 -21.109375 C 36.894531 -21.941406 38.644531 -22.9375 40.15625 -24.09375 C 41.664062 -25.25 42.925781 -26.453125 43.9375 -27.703125 C 44.957031 -28.960938 45.46875 -30.039062 45.46875 -30.9375 C 45.46875 -31.832031 45.1875 -32.632812 44.625 -33.34375 C 44.070312 -34.050781 43.3125 -34.609375 42.34375 -35.015625 C 40.4375 -35.816406 38.128906 -36.21875 35.421875 -36.21875 C 32.710938 -36.21875 29.441406 -35.515625 25.609375 -34.109375 C 21.785156 -32.703125 19 -31.328125 17.25 -29.984375 Z M 17.25 -29.984375 "/></g></g></g><g fill="#000000" fill-opacity="1"><g transform="translate(274.21007, 270.399912)"><g><path d="M 19.921875 -30.6875 C 19.921875 -29.625 19.425781 -28.554688 18.4375 -27.484375 C 17.457031 -26.410156 16.429688 -25.875 15.359375 -25.875 C 14.285156 -25.875 13.75 -26.429688 13.75 -27.546875 C 13.75 -28.671875 14.21875 -29.738281 15.15625 -30.75 C 16.101562 -31.769531 17.144531 -32.28125 18.28125 -32.28125 C 18.78125 -32.28125 19.175781 -32.140625 19.46875 -31.859375 C 19.769531 -31.578125 19.921875 -31.1875 19.921875 -30.6875 Z M 15.40625 -6.28125 C 15.40625 -5.726562 15.347656 -5.332031 15.234375 -5.09375 C 14.316406 -3.226562 12.859375 -1.722656 10.859375 -0.578125 C 8.867188 0.566406 7.140625 1.140625 5.671875 1.140625 C 4.203125 1.140625 2.9375 0.648438 1.875 -0.328125 C 0.8125 -1.316406 0.28125 -2.320312 0.28125 -3.34375 C 0.28125 -4.375 0.789062 -5.867188 1.8125 -7.828125 C 2.84375 -9.785156 3.867188 -11.59375 4.890625 -13.25 C 5.910156 -14.90625 6.421875 -15.800781 6.421875 -15.9375 C 6.421875 -16.082031 6.226562 -16.359375 5.84375 -16.765625 C 5.46875 -17.171875 5.28125 -17.472656 5.28125 -17.671875 C 5.28125 -17.867188 5.664062 -18.378906 6.4375 -19.203125 C 7.207031 -20.035156 8.144531 -20.859375 9.25 -21.671875 C 10.363281 -22.484375 11.210938 -22.890625 11.796875 -22.890625 C 12.390625 -22.890625 12.914062 -22.628906 13.375 -22.109375 C 13.84375 -21.585938 14.078125 -21.109375 14.078125 -20.671875 C 14.078125 -20.242188 11.863281 -16.210938 7.4375 -8.578125 C 7.375 -8.460938 7.21875 -8.210938 6.96875 -7.828125 C 6.71875 -7.453125 6.519531 -7.140625 6.375 -6.890625 C 6.238281 -6.640625 6.078125 -6.335938 5.890625 -5.984375 C 5.523438 -5.234375 5.34375 -4.609375 5.34375 -4.109375 C 5.34375 -3.472656 5.769531 -3.15625 6.625 -3.15625 C 7.476562 -3.15625 8.363281 -3.445312 9.28125 -4.03125 C 10.207031 -4.625 11.007812 -5.273438 11.6875 -5.984375 C 13.4375 -7.859375 14.429688 -8.796875 14.671875 -8.796875 C 15.160156 -8.796875 15.40625 -7.957031 15.40625 -6.28125 Z M 15.40625 -6.28125 "/></g></g></g><g fill="#000000" fill-opacity="1"><g transform="translate(285.807856, 270.399912)"><g><path d="M 24.90625 -41.953125 C 25.789062 -41.953125 26.570312 -41.6875 27.25 -41.15625 C 27.9375 -40.625 28.28125 -39.832031 28.28125 -38.78125 C 28.28125 -37.738281 27.703125 -36.101562 26.546875 -33.875 C 25.390625 -31.65625 24 -29.382812 22.375 -27.0625 C 20.757812 -24.75 18.925781 -22.285156 16.875 -19.671875 C 13.632812 -15.535156 10.523438 -11.820312 7.546875 -8.53125 C 7.523438 -8.300781 7.441406 -7.882812 7.296875 -7.28125 C 7.160156 -6.675781 7.09375 -6.066406 7.09375 -5.453125 C 7.09375 -4.835938 7.375 -4.28125 7.9375 -3.78125 C 8.507812 -3.289062 9.210938 -3.046875 10.046875 -3.046875 C 10.890625 -3.046875 11.789062 -3.34375 12.75 -3.9375 C 13.71875 -4.53125 14.554688 -5.191406 15.265625 -5.921875 C 17.117188 -7.835938 18.269531 -8.796875 18.71875 -8.796875 C 19.164062 -8.796875 19.390625 -8.117188 19.390625 -6.765625 L 19.390625 -6.203125 C 19.390625 -5.472656 19.257812 -4.941406 19 -4.609375 C 17.4375 -2.691406 15.675781 -1.257812 13.71875 -0.3125 C 11.757812 0.625 9.90625 1.09375 8.15625 1.09375 C 6.40625 1.09375 5.070312 0.554688 4.15625 -0.515625 C 3.25 -1.585938 2.796875 -3.054688 2.796875 -4.921875 C 2.796875 -8.554688 3.769531 -12.828125 5.71875 -17.734375 C 7.664062 -22.640625 9.859375 -26.816406 12.296875 -30.265625 C 17.796875 -38.054688 22 -41.953125 24.90625 -41.953125 Z M 23.640625 -37.3125 C 23.640625 -37.59375 23.546875 -37.734375 23.359375 -37.734375 C 22.710938 -37.734375 21 -35.867188 18.21875 -32.140625 C 15.445312 -28.410156 13.441406 -25.4375 12.203125 -23.21875 C 10.960938 -21 9.789062 -18.21875 8.6875 -14.875 C 10.882812 -17.476562 13.925781 -21.539062 17.8125 -27.0625 C 21.695312 -32.59375 23.640625 -36.007812 23.640625 -37.3125 Z M 23.640625 -37.3125 "/></g></g></g><g fill="#000000" fill-opacity="1"><g transform="translate(300.563593, 270.399912)"><g><path d="M 20.703125 -21.296875 C 21.265625 -21.296875 21.835938 -21.039062 22.421875 -20.53125 C 23.015625 -20.03125 23.3125 -19.265625 23.3125 -18.234375 C 23.3125 -17.203125 22.945312 -15.859375 22.21875 -14.203125 C 21.488281 -12.554688 20.488281 -10.878906 19.21875 -9.171875 C 17.957031 -7.472656 16.566406 -5.875 15.046875 -4.375 C 13.523438 -2.875 11.882812 -1.644531 10.125 -0.6875 C 8.363281 0.269531 6.765625 0.75 5.328125 0.75 C 3.898438 0.75 2.753906 0.300781 1.890625 -0.59375 C 1.023438 -1.5 0.59375 -2.757812 0.59375 -4.375 C 0.59375 -5.988281 0.988281 -7.769531 1.78125 -9.71875 C 2.570312 -11.675781 3.585938 -13.40625 4.828125 -14.90625 C 6.078125 -16.40625 7.429688 -17.753906 8.890625 -18.953125 C 11.921875 -21.390625 14.582031 -22.609375 16.875 -22.609375 C 17.90625 -22.609375 18.679688 -22.359375 19.203125 -21.859375 C 19.390625 -21.691406 19.484375 -21.539062 19.484375 -21.40625 L 19.484375 -21.234375 C 19.742188 -21.273438 20.148438 -21.296875 20.703125 -21.296875 Z M 17.890625 -17.578125 L 17.6875 -17.578125 C 17.039062 -17.578125 16.71875 -18.050781 16.71875 -19 C 15.351562 -18.550781 13.925781 -17.769531 12.4375 -16.65625 C 10.945312 -15.539062 9.613281 -14.21875 8.4375 -12.6875 C 6.050781 -9.632812 4.84375 -7.054688 4.8125 -4.953125 C 4.8125 -3.898438 5.191406 -3.375 5.953125 -3.375 C 6.710938 -3.375 7.847656 -3.878906 9.359375 -4.890625 C 10.867188 -5.898438 12.363281 -7.332031 13.84375 -9.1875 C 15.320312 -11.050781 16.429688 -12.664062 17.171875 -14.03125 C 17.910156 -15.40625 18.28125 -16.335938 18.28125 -16.828125 C 18.28125 -17.328125 18.148438 -17.578125 17.890625 -17.578125 Z M 17.890625 -17.578125 "/></g></g></g><g fill="#000000" fill-opacity="1"><g transform="translate(321.523446, 270.399912)"><g><path d="M 20.953125 -36 L 22.109375 -35.71875 C 22.273438 -35.71875 22.421875 -35.632812 22.546875 -35.46875 C 22.679688 -35.300781 22.75 -35.140625 22.75 -34.984375 C 22.75 -34.835938 22.550781 -34.4375 22.15625 -33.78125 C 21.769531 -33.132812 21.3125 -32.394531 20.78125 -31.5625 C 20.25 -30.738281 19.960938 -30.285156 19.921875 -30.203125 C 21.378906 -30.316406 22.410156 -30.375 23.015625 -30.375 C 23.617188 -30.375 24.03125 -30.332031 24.25 -30.25 C 24.476562 -30.164062 24.734375 -29.929688 25.015625 -29.546875 C 25.304688 -29.171875 25.570312 -28.882812 25.8125 -28.6875 C 26.0625 -28.488281 26.1875 -28.191406 26.1875 -27.796875 C 26.1875 -27.410156 25.945312 -27.082031 25.46875 -26.8125 C 25 -26.539062 24.492188 -26.378906 23.953125 -26.328125 C 19.628906 -25.898438 17.242188 -25.675781 16.796875 -25.65625 C 15.285156 -23.34375 13.175781 -19.738281 10.46875 -14.84375 C 7.757812 -9.957031 6.316406 -6.898438 6.140625 -5.671875 C 6.066406 -5.109375 6.03125 -4.648438 6.03125 -4.296875 C 6.03125 -3.578125 6.410156 -3.21875 7.171875 -3.21875 C 7.941406 -3.21875 8.789062 -3.507812 9.71875 -4.09375 C 10.65625 -4.675781 11.515625 -5.316406 12.296875 -6.015625 C 14.378906 -7.867188 15.5 -8.796875 15.65625 -8.796875 C 16.132812 -8.796875 16.375 -7.957031 16.375 -6.28125 C 16.375 -5.375 15.957031 -4.554688 15.125 -3.828125 C 13.238281 -2.203125 11.648438 -0.976562 10.359375 -0.15625 C 9.078125 0.65625 7.796875 1.0625 6.515625 1.0625 C 6.234375 1.0625 5.972656 1.035156 5.734375 0.984375 C 4.242188 0.703125 3.144531 0.15625 2.4375 -0.65625 C 1.738281 -1.46875 1.394531 -2.5625 1.40625 -3.9375 C 1.414062 -5.320312 1.828125 -6.992188 2.640625 -8.953125 C 3.453125 -10.921875 4.472656 -13.015625 5.703125 -15.234375 C 7.710938 -18.847656 9.722656 -22.238281 11.734375 -25.40625 L 10.671875 -25.265625 C 8.515625 -25.023438 7.257812 -24.90625 6.90625 -24.90625 L 6.65625 -24.90625 C 6.113281 -24.90625 5.585938 -25.007812 5.078125 -25.21875 C 4.578125 -25.4375 4.328125 -25.703125 4.328125 -26.015625 C 4.328125 -26.335938 4.460938 -26.644531 4.734375 -26.9375 C 5.003906 -27.238281 5.164062 -27.472656 5.21875 -27.640625 C 5.351562 -28.046875 5.84375 -28.5 6.6875 -29 C 7.539062 -29.507812 8.179688 -29.773438 8.609375 -29.796875 C 9.035156 -29.828125 9.445312 -29.851562 9.84375 -29.875 C 10.25 -29.894531 10.695312 -29.910156 11.1875 -29.921875 C 11.6875 -29.941406 12.066406 -29.960938 12.328125 -29.984375 L 14.84375 -30.09375 C 16.40625 -32.445312 17.476562 -33.957031 18.0625 -34.625 C 18.65625 -35.289062 19 -35.65625 19.09375 -35.71875 C 19.1875 -35.789062 19.367188 -35.828125 19.640625 -35.828125 Z M 20.953125 -36 "/></g></g></g><g fill="#000000" fill-opacity="1"><g transform="translate(333.82969, 270.399912)"><g/></g></g><path fill="#c6c6c6" d="M 275.929688 110.796875 L 208.273438 167.28125 L 208.742188 204.667969 Z M 275.929688 110.796875 " fill-opacity="1" fill-rule="nonzero"/><path fill="#d80c0c" d="M 218.910156 171.105469 L 209.742188 203.785156 L 230.253906 178.15625 " fill-opacity="1" fill-rule="nonzero"/><path fill="#ededed" d="M 198.160156 165.929688 C 198.277344 165.929688 198.457031 165.929688 198.632812 165.988281 C 198.398438 165.929688 198.21875 165.929688 198.160156 165.929688 Z M 198.160156 165.929688 " fill-opacity="1" fill-rule="nonzero"/><path fill="#ededed" d="M 208.800781 167.695312 L 208.683594 167.695312 L 208.800781 167.695312 L 209.152344 167.578125 C 209.035156 167.636719 208.917969 167.636719 208.800781 167.695312 Z M 208.800781 167.695312 " fill-opacity="1" fill-rule="nonzero"/><path fill="#ededed" d="M 263.171875 123.667969 L 262.644531 124.195312 C 262.820312 124.019531 262.996094 123.84375 263.289062 123.667969 C 263.289062 123.609375 263.230469 123.609375 263.171875 123.667969 Z M 263.171875 123.667969 " fill-opacity="1" fill-rule="nonzero"/><path fill="#ededed" d="M 265.875 121.316406 L 265.757812 121.433594 Z M 265.875 121.316406 " fill-opacity="1" fill-rule="nonzero"/><path fill="#ededed" d="M 254.238281 130.839844 C 254.472656 130.78125 254.648438 130.664062 255.882812 129.722656 C 255.414062 130.015625 254.824219 130.367188 254.238281 130.839844 Z M 254.238281 130.839844 " fill-opacity="1" fill-rule="nonzero"/><path fill="#ededed" d="M 243.597656 139.480469 C 243.246094 139.832031 243.480469 139.65625 243.246094 139.890625 C 244.011719 139.304688 244.246094 139.011719 243.597656 139.480469 Z M 243.597656 139.480469 " fill-opacity="1" fill-rule="nonzero"/><path fill="#ededed" d="M 264.996094 122.257812 C 265.054688 122.199219 265.113281 122.140625 265.171875 122.023438 L 265.347656 121.847656 C 265.171875 122.023438 265.054688 122.140625 264.996094 122.257812 Z M 264.996094 122.257812 " fill-opacity="1" fill-rule="nonzero"/><path fill="#ededed" d="M 267.757812 119.847656 L 268.523438 119.199219 C 268.460938 119.257812 268.226562 119.4375 267.757812 119.847656 Z M 267.757812 119.847656 " fill-opacity="1" fill-rule="nonzero"/><path fill="#ededed" d="M 254.0625 134.367188 L 254.824219 133.425781 L 254.53125 133.71875 Z M 254.0625 134.367188 " fill-opacity="1" fill-rule="nonzero"/><path fill="#ededed" d="M 239.660156 149.003906 L 240.601562 148.121094 C 240.542969 148.121094 240.835938 147.769531 241.011719 147.589844 Z M 239.660156 149.003906 " fill-opacity="1" fill-rule="nonzero"/><path fill="#ededed" d="M 232.195312 156.644531 L 232.371094 156.585938 L 232.902344 155.9375 Z M 232.195312 156.644531 " fill-opacity="1" fill-rule="nonzero"/><path fill="#ededed" d="M 266.933594 159.289062 L 266.816406 159.875 C 266.875 159.699219 266.875 159.464844 266.933594 159.289062 Z M 266.933594 159.289062 " fill-opacity="1" fill-rule="nonzero"/><g clip-path="url(#b031a449b1)"><path fill="#ededed" d="M 276.222656 110.207031 C 275.691406 110.441406 275.164062 110.679688 274.695312 110.914062 C 273.753906 111.382812 273.046875 111.734375 272.871094 112.03125 C 273.398438 111.792969 274.222656 111.441406 275.105469 111.03125 C 275.574219 110.796875 276.046875 110.617188 276.574219 110.382812 C 277.042969 110.148438 277.574219 109.914062 278.042969 109.679688 C 278.042969 109.738281 278.042969 109.796875 277.984375 109.796875 L 278.042969 109.679688 L 272.105469 112.558594 L 272.226562 112.207031 C 268.460938 113.675781 265.464844 115.910156 262.46875 116.851562 C 260.820312 117.730469 258.644531 118.847656 257.472656 119.554688 L 257.53125 119.4375 C 256.882812 119.789062 255.238281 120.671875 255.121094 120.847656 L 254.238281 121.257812 C 254.414062 121.082031 253.296875 121.550781 254.53125 120.964844 C 252.296875 121.90625 250.535156 122.902344 248.59375 123.960938 L 249.183594 123.667969 C 249.066406 123.726562 249.007812 123.84375 248.890625 123.902344 L 247.300781 124.667969 C 246.890625 124.84375 246.363281 125.078125 245.421875 125.550781 C 246.007812 125.078125 247.125 124.550781 247.535156 124.257812 C 244.421875 125.429688 243.421875 126.488281 241.246094 127.078125 L 241.484375 126.960938 C 241.011719 127.136719 240.25 127.546875 239.601562 127.898438 C 239.835938 127.839844 240.484375 127.546875 240.953125 127.371094 C 240.308594 127.722656 240.011719 128.019531 239.835938 128.195312 C 239.191406 128.371094 238.957031 128.605469 238.308594 128.957031 L 238.015625 129.132812 L 237.660156 129.3125 C 237.191406 129.371094 238.601562 128.722656 239.015625 128.429688 L 237.601562 129.195312 C 236.25 129.839844 236.191406 129.664062 235.546875 129.898438 C 234.488281 130.546875 236.25 129.664062 235.429688 130.25 C 233.839844 130.722656 228.082031 133.484375 225.140625 135.070312 C 225.671875 134.777344 225.257812 134.835938 226.316406 134.367188 C 225.847656 134.542969 224.320312 135.367188 224.378906 135.484375 C 222.4375 136.542969 219.851562 137.714844 217.910156 138.480469 L 218.5 138.304688 C 217.03125 139.246094 214.445312 140.066406 211.738281 141.539062 L 211.796875 141.539062 C 210.917969 142.007812 210.269531 142.652344 208.625 143.359375 C 209.035156 143.007812 209.917969 142.59375 209.742188 142.476562 L 207.332031 143.828125 C 206.859375 143.949219 204.097656 145.359375 204.980469 144.828125 C 203.628906 145.652344 200.453125 146.945312 201.628906 146.769531 L 200.570312 147.296875 C 200.628906 147.238281 200.628906 147.238281 200.6875 147.238281 C 200.570312 147.296875 200.570312 147.238281 200.101562 147.472656 L 200.925781 146.886719 C 199.925781 147.296875 198.867188 148.0625 198.984375 148.121094 L 192.8125 151 C 193.28125 150.707031 193.695312 150.414062 194.574219 149.941406 L 195.398438 149.707031 C 196.28125 149.179688 199.101562 148.003906 197.984375 148.238281 C 197.867188 148.296875 197.28125 148.707031 196.457031 149.0625 L 196.515625 148.886719 L 194.753906 149.765625 L 195.28125 149.414062 C 192.753906 150.414062 193.753906 150.53125 190.695312 151.882812 L 190.636719 151.648438 C 188.640625 152.589844 187.640625 153.175781 185.816406 153.882812 C 185.816406 153.882812 185.875 154 186.171875 153.824219 C 186.523438 153.644531 186.992188 153.527344 186.757812 153.703125 C 183.820312 155.292969 187.167969 153.351562 184.996094 154.292969 C 182.527344 155.644531 177.648438 158.113281 176.179688 158.640625 C 177.472656 158.171875 175.707031 159.171875 174.296875 159.875 C 173.589844 160.113281 174.707031 159.523438 174.886719 159.347656 C 174.179688 159.640625 173.652344 159.816406 173.003906 160.230469 C 173.652344 159.996094 173.589844 160.171875 172.945312 160.582031 L 171.652344 160.347656 L 172.886719 160.640625 C 172.652344 160.757812 172.355469 160.933594 172.003906 161.167969 L 193.578125 164.871094 C 193.578125 164.871094 193.578125 164.933594 193.519531 164.933594 L 195.046875 165.167969 L 197.632812 165.636719 L 197.75 165.753906 C 198.21875 165.871094 198.691406 165.871094 199.101562 165.929688 L 199.511719 165.988281 C 199.632812 165.988281 199.691406 166.046875 199.75 166.109375 C 199.984375 166.285156 199.160156 166.167969 198.632812 166.046875 C 199.867188 166.226562 201.984375 166.871094 204.511719 167.28125 C 206.625 167.636719 206.683594 167.402344 207.566406 167.34375 L 207.859375 167.402344 C 207.859375 167.636719 208.15625 167.871094 208.15625 168.105469 C 208.09375 168.046875 208.035156 168.105469 207.976562 168.046875 C 207.976562 168.398438 208.09375 168.871094 207.917969 168.988281 C 207.859375 169.105469 208.15625 169.105469 208.214844 169.28125 L 208.035156 169.339844 C 208.15625 169.398438 207.976562 169.691406 208.214844 169.574219 C 208.214844 169.574219 208.09375 169.515625 208.15625 169.457031 L 208.273438 169.457031 L 208.214844 169.28125 L 208.332031 169.339844 C 208.507812 169.105469 207.976562 169.164062 208.09375 168.929688 L 208.332031 168.929688 C 208.332031 168.753906 208.273438 168.636719 208.390625 168.515625 L 208.332031 168.515625 C 208.332031 168.578125 208.214844 168.578125 208.15625 168.578125 C 207.976562 168.28125 208.273438 168.636719 208.390625 168.398438 C 208.214844 168.164062 208.09375 167.695312 208.273438 167.578125 C 208.09375 167.695312 207.976562 167.519531 207.976562 167.402344 C 208.035156 167.34375 208.09375 167.460938 208.214844 167.460938 C 208.214844 167.460938 208.214844 167.402344 208.273438 167.402344 L 209.152344 167.578125 L 212.796875 164.578125 C 214.5625 163.460938 216.382812 161.699219 217.382812 160.757812 L 221.203125 157.585938 C 221.261719 157.527344 221.320312 157.527344 221.320312 157.527344 C 220.792969 158.113281 219.558594 158.878906 219.734375 158.996094 C 221.851562 157.347656 225.023438 154.585938 228.257812 151.765625 L 232.785156 148.003906 L 232.664062 148.179688 C 233.195312 147.710938 233.839844 147.121094 234.546875 146.59375 L 236.132812 145.300781 C 237.957031 143.828125 239.835938 142.359375 241.070312 141.597656 C 240.542969 141.832031 244.714844 138.773438 244.128906 138.773438 C 244.773438 138.363281 244.949219 138.1875 245.832031 137.480469 L 246.007812 137.1875 C 247.242188 136.1875 247.183594 136.480469 248.59375 135.308594 C 247.949219 135.71875 248.125 135.484375 248.417969 135.1875 L 250.003906 133.835938 C 251.417969 132.835938 252.945312 131.78125 254.179688 130.898438 C 254.0625 130.957031 253.886719 131.015625 253.355469 131.367188 C 254.355469 130.605469 254.121094 130.605469 254.355469 130.367188 C 255.296875 129.605469 255.355469 129.839844 255.355469 129.957031 C 257.117188 128.605469 257.707031 127.664062 259.058594 126.664062 L 258.527344 126.902344 C 260.292969 125.429688 261.9375 124.316406 263.878906 122.667969 C 264.996094 122.082031 262.347656 124.136719 261.585938 124.902344 C 261.996094 124.609375 262.878906 123.902344 263.171875 123.726562 C 263.585938 123.375 264.113281 122.84375 264.640625 122.316406 L 264.820312 122.140625 L 264.878906 122.023438 L 265.054688 121.789062 C 265.171875 121.609375 265.347656 121.433594 265.582031 121.257812 C 265.347656 121.492188 265.347656 121.609375 265.347656 121.667969 C 265.347656 121.726562 265.40625 121.667969 265.464844 121.667969 C 265.582031 121.609375 265.816406 121.433594 265.875 121.433594 C 266.054688 121.199219 266.171875 121.082031 266.113281 121.082031 C 266.113281 121.082031 265.933594 121.199219 265.699219 121.433594 C 265.992188 121.023438 266.699219 120.492188 267.464844 119.730469 C 267.226562 119.90625 267.289062 119.730469 267.582031 119.4375 L 268.109375 118.90625 L 271.460938 116.144531 C 271.34375 116.261719 271.167969 116.378906 271.050781 116.496094 C 270.636719 116.851562 270.285156 117.144531 270.050781 117.320312 C 269.933594 117.4375 269.34375 118.023438 269.167969 118.261719 C 268.875 118.613281 268.460938 118.964844 268.050781 119.320312 C 268.050781 119.320312 267.992188 119.320312 267.992188 119.378906 C 268.109375 119.320312 267.289062 120.140625 266.699219 120.730469 C 267.289062 120.140625 267.640625 119.847656 267.992188 119.613281 C 268.34375 119.320312 268.640625 119.023438 269.519531 118.203125 C 269.050781 118.671875 268.875 118.847656 268.699219 118.964844 C 268.523438 119.140625 268.402344 119.257812 267.875 119.730469 L 269.695312 118.085938 C 269.695312 118.085938 269.226562 118.554688 268.757812 118.964844 C 268.402344 119.257812 268.34375 119.378906 268.167969 119.496094 C 267.992188 119.613281 267.933594 119.730469 267.933594 119.730469 C 267.992188 119.671875 268.109375 119.613281 268.34375 119.378906 C 268.757812 119.023438 269.050781 118.789062 269.109375 118.671875 C 269.226562 118.613281 269.167969 118.671875 268.875 118.964844 L 268.523438 119.257812 C 268.757812 119.082031 267.699219 120.082031 269.757812 118.261719 L 267.523438 120.257812 L 268.757812 119.199219 C 268.402344 119.496094 268.050781 119.847656 267.699219 120.199219 C 266.992188 120.847656 266.347656 121.375 265.992188 121.667969 C 265.816406 121.847656 265.699219 121.964844 265.582031 122.023438 C 265.464844 122.140625 265.464844 122.199219 265.347656 122.316406 C 265.464844 122.199219 265.523438 122.199219 265.523438 122.199219 C 265.523438 122.257812 265.464844 122.316406 265.40625 122.433594 C 265.757812 122.199219 265.875 121.964844 265.933594 121.847656 C 265.992188 121.726562 265.875 121.726562 265.992188 121.609375 C 266.347656 121.375 266.464844 121.316406 266.582031 121.316406 C 266.640625 121.316406 266.699219 121.375 266.992188 121.082031 C 266.757812 121.316406 266.523438 121.492188 266.347656 121.667969 C 266.113281 121.90625 265.875 122.140625 265.640625 122.316406 C 265.289062 122.609375 264.757812 123.140625 264.347656 123.316406 C 262.703125 124.960938 262.171875 125.726562 260.46875 127.371094 L 260.46875 127.3125 C 260.351562 127.78125 259.058594 128.605469 258 130.074219 L 258.941406 129.195312 C 258.941406 129.3125 258.527344 129.722656 257.941406 130.367188 C 258 130.25 258 130.25 257.765625 130.429688 C 257.765625 130.546875 257.410156 130.957031 257 131.425781 L 251.886719 136.660156 L 251.179688 137.128906 C 251.710938 136.601562 252.179688 136.070312 252.238281 136.1875 C 252.769531 135.484375 252.472656 135.71875 252.003906 136.011719 C 253.296875 134.601562 253.648438 134.425781 254.53125 133.25 C 252.121094 135.425781 252.769531 135.308594 250.066406 137.835938 L 249.652344 138.832031 C 248.59375 139.890625 249.828125 138.421875 248.769531 139.363281 C 247.890625 140.421875 249.710938 138.714844 249.417969 139.1875 L 247.300781 141.300781 C 247.300781 141.183594 247.007812 141.242188 246.890625 141.359375 C 246.539062 141.832031 245.539062 142.652344 244.832031 143.359375 C 246.65625 141.714844 243.480469 144.886719 245.128906 143.417969 C 245.128906 143.476562 245.066406 143.535156 245.007812 143.59375 L 243.128906 145.535156 C 243.304688 145.300781 243.597656 145.0625 243.832031 144.828125 C 244.070312 144.359375 242.71875 145.886719 242.304688 146.003906 C 241.542969 146.945312 239.777344 148.824219 238.542969 150.296875 L 236.308594 152.589844 C 236.25 152.589844 236.25 152.589844 236.308594 152.46875 C 235.839844 152.941406 235.664062 153.175781 235.488281 153.46875 L 231.960938 157.054688 C 231.371094 157.527344 230.316406 158.523438 230.019531 158.699219 C 227.667969 161.640625 227.140625 161.167969 224.730469 163.816406 C 223.378906 165.578125 225.140625 163.875 225.140625 164.050781 C 224.261719 164.933594 223.496094 165.929688 222.789062 166.519531 C 222.789062 166.34375 223.320312 165.8125 223.847656 165.285156 C 223.378906 165.460938 222.90625 166.285156 221.910156 167.105469 C 222.027344 167.046875 222.378906 166.695312 222.144531 166.988281 C 221.085938 168.046875 220.734375 168.457031 220.378906 168.871094 C 220.203125 169.105469 220.027344 169.28125 219.734375 169.574219 C 219.617188 169.691406 219.441406 169.871094 219.265625 170.105469 L 218.441406 170.925781 C 218.441406 170.867188 218.382812 170.808594 218.382812 170.75 L 218.324219 171.28125 C 218.324219 171.105469 218.207031 171.457031 218.148438 171.28125 C 218.148438 171.515625 218.148438 171.691406 218.089844 171.867188 C 218.03125 171.984375 218.03125 172.042969 217.96875 172.160156 C 217.851562 172.339844 217.734375 172.515625 217.734375 172.808594 L 217.851562 172.515625 C 217.96875 172.574219 217.910156 172.691406 217.910156 172.867188 C 217.675781 172.984375 217.675781 173.042969 217.558594 173.335938 C 217.558594 173.632812 217.734375 173.808594 217.675781 174.101562 C 217.5 173.984375 217.382812 174.570312 217.207031 174.628906 C 217.382812 174.75 217.089844 175.277344 217.207031 175.335938 C 217.207031 175.511719 217.089844 175.746094 216.972656 175.6875 L 216.972656 175.570312 L 216.914062 175.746094 C 216.914062 175.746094 216.855469 175.746094 216.855469 175.6875 C 216.796875 175.863281 216.972656 175.863281 216.796875 176.042969 C 216.734375 176.042969 216.796875 175.921875 216.796875 175.804688 C 216.617188 176.21875 216.914062 176.628906 216.617188 176.921875 C 216.675781 177.039062 216.558594 177.511719 216.855469 177.453125 C 216.734375 177.570312 216.558594 177.453125 216.5 177.804688 C 216.617188 178.039062 216.324219 178.15625 216.382812 178.453125 C 216.265625 178.039062 216.324219 178.453125 216.207031 178.097656 C 216.03125 178.332031 216.207031 178.746094 216.089844 179.15625 C 216.03125 179.15625 215.972656 179.15625 215.914062 179.214844 C 215.914062 179.390625 216.03125 179.625 215.855469 179.6875 L 215.972656 179.6875 C 215.796875 179.921875 215.738281 180.332031 215.5 180.566406 L 215.679688 180.980469 C 215.265625 181.390625 215.324219 182.035156 215.441406 182.507812 C 215.382812 182.683594 215.265625 182.917969 215.207031 182.917969 C 215.207031 182.859375 215.148438 182.800781 215.148438 182.683594 C 215.089844 182.917969 214.796875 183.210938 215.03125 183.390625 C 215.03125 183.683594 214.796875 183.507812 214.738281 183.742188 C 214.914062 184.328125 214.03125 185.210938 214.503906 185.503906 C 214.5625 185.269531 214.796875 184.917969 214.855469 184.503906 C 214.855469 184.625 214.972656 184.5625 214.972656 184.742188 C 214.855469 185.152344 214.621094 185.328125 214.621094 185.738281 L 214.328125 185.621094 C 213.796875 186.210938 214.328125 187.09375 213.738281 187.503906 C 213.679688 187.855469 213.621094 188.265625 213.738281 188.5625 L 213.679688 188.503906 C 213.679688 188.679688 213.679688 189.265625 213.914062 188.972656 L 213.855469 188.855469 C 213.855469 188.386719 214.089844 188.621094 214.265625 188.328125 C 214.328125 187.914062 214.03125 187.621094 214.207031 187.269531 C 214.265625 187.09375 214.328125 187.152344 214.386719 187.210938 C 214.503906 186.855469 214.265625 186.679688 214.328125 186.386719 C 215.03125 186.503906 214.445312 185.269531 215.03125 184.917969 C 215.089844 184.5625 215.265625 184.152344 215.207031 183.742188 C 215.324219 184.035156 215.324219 183.328125 215.5 183.507812 C 215.148438 183.269531 216.03125 182.390625 215.5625 182.15625 C 215.855469 181.625 215.5625 182.09375 215.855469 181.507812 C 215.914062 181.507812 215.855469 181.625 215.855469 181.683594 C 216.03125 181.449219 215.738281 181.214844 216.03125 181.097656 C 216.207031 180.566406 215.914062 180.980469 215.855469 180.625 C 216.089844 180.097656 216.089844 180.273438 216.382812 180.039062 C 216.148438 179.921875 216.382812 179.625 216.324219 179.332031 C 216.265625 179.390625 216.148438 179.746094 216.089844 179.449219 C 216.324219 178.863281 216.089844 178.921875 216.148438 178.332031 C 216.5 178.097656 215.972656 178.921875 216.324219 178.453125 C 216.324219 178.863281 216.265625 179.15625 216.382812 179.390625 C 216.558594 178.921875 216.675781 178.273438 216.734375 177.6875 C 216.855469 177.394531 216.796875 177.863281 216.914062 177.628906 C 217.207031 177.15625 216.855469 176.746094 217.148438 176.335938 L 217.265625 176.453125 C 217.148438 176.160156 217.558594 175.511719 217.617188 174.984375 C 217.5 175.042969 217.441406 175.042969 217.441406 174.984375 C 217.792969 175.101562 217.441406 174.21875 217.851562 173.808594 C 217.617188 173.808594 217.617188 173.277344 217.675781 172.984375 C 217.792969 172.867188 217.851562 172.925781 217.910156 172.984375 C 217.617188 173.453125 218.03125 173.515625 218.03125 173.925781 C 218.03125 173.574219 218.265625 173.042969 218.207031 172.75 L 218.324219 172.925781 C 218.5 172.457031 218.03125 172.398438 218.324219 171.984375 L 218.441406 172.042969 C 218.5 171.808594 218.558594 171.632812 218.675781 171.398438 L 229.609375 178.097656 C 229.609375 178.097656 229.609375 178.15625 229.550781 178.15625 L 229.609375 178.097656 L 229.726562 178.15625 C 229.667969 178.214844 229.550781 178.273438 229.433594 178.273438 C 229.375 178.453125 229.492188 178.511719 229.667969 178.390625 C 229.726562 178.332031 229.785156 178.332031 229.84375 178.273438 L 234.957031 181.449219 C 235.015625 181.507812 235.074219 181.566406 235.132812 181.566406 L 234.722656 181.449219 C 237.78125 183.152344 241.128906 185.386719 243.714844 186.855469 L 245.007812 187.796875 C 247.183594 189.03125 245.421875 187.914062 244.363281 187.210938 L 246.832031 188.738281 C 246.773438 188.738281 246.773438 188.738281 246.949219 188.914062 C 247.066406 188.914062 247.183594 188.972656 247.300781 189.03125 L 249.066406 190.148438 C 248.890625 190.265625 251.238281 191.5 250.476562 191.324219 L 253.355469 192.792969 L 255.121094 193.851562 C 255.648438 194.203125 256.238281 194.558594 256.765625 194.851562 C 256.707031 194.851562 256.707031 194.792969 256.648438 194.792969 L 256.824219 194.910156 C 256.824219 194.910156 256.765625 194.910156 256.765625 194.851562 C 257 195.027344 257.351562 195.203125 257.765625 195.4375 C 257.882812 195.496094 257.882812 195.496094 257.765625 195.4375 L 268.34375 150.414062 C 268.050781 151.941406 267.933594 153.175781 267.523438 154.703125 L 267.523438 154.175781 C 267.347656 155.703125 266.230469 159.464844 265.699219 162.226562 C 265.875 161.875 265.933594 161.699219 265.933594 162.050781 C 265.582031 161.933594 265.230469 165.929688 264.347656 168.636719 C 264.640625 168.457031 264.113281 171.164062 263.761719 172.867188 C 263.585938 173.453125 263.464844 173.277344 263.464844 173.277344 C 264.230469 170.574219 263.820312 170.574219 264.230469 168.339844 C 263.9375 170.164062 263.113281 173.160156 262.9375 174.75 L 262.878906 174.101562 C 262.289062 176.628906 262.761719 176.394531 261.996094 178.980469 L 261.9375 178.6875 C 260.703125 183.976562 259.058594 190.089844 258.351562 194.4375 C 258.351562 194.851562 259.117188 192.734375 259.234375 192.675781 C 259.703125 190.148438 259.878906 188.621094 260.234375 186.679688 L 260.410156 186.738281 C 260.410156 186.855469 260.46875 186.855469 260.527344 186.796875 L 260.410156 186.738281 C 260.351562 186.269531 260.820312 183.917969 260.410156 185.210938 C 260.644531 183.625 260.878906 184.09375 261.175781 182.214844 C 261.351562 182.390625 261.117188 183.507812 261.292969 183.566406 L 261.527344 181.976562 C 261.46875 182.507812 261.820312 181.039062 261.820312 181.566406 C 262.230469 178.628906 262.878906 177.511719 263.464844 174.511719 L 263.054688 176.160156 C 262.9375 176.101562 263.171875 175.160156 263.289062 174.453125 C 263.644531 173.691406 263.761719 173.160156 264.171875 171.632812 C 264.40625 170.28125 264.347656 169.515625 264.757812 167.695312 C 264.878906 168.105469 265.582031 164.753906 265.816406 164.460938 C 265.699219 164.050781 266.523438 160.933594 266.464844 160.699219 C 266.640625 159.699219 266.992188 158.40625 267.109375 158.464844 C 267.109375 158.582031 267.050781 158.878906 266.992188 159.171875 L 267.226562 158.230469 C 267.226562 158.347656 267.289062 158.289062 267.226562 158.40625 C 267.40625 157.527344 267.289062 157.527344 267.640625 156.410156 C 267.699219 156.410156 267.582031 157.054688 267.464844 157.527344 C 268.050781 155.234375 268.050781 153.46875 268.699219 151.589844 C 268.699219 151.175781 269.285156 148.53125 268.933594 149.0625 C 269.167969 148.355469 269.285156 148.648438 269.695312 146.769531 C 269.757812 145.59375 270.285156 144.652344 270.460938 143.183594 C 270.226562 145.183594 270.519531 143.183594 270.34375 144.945312 C 270.753906 143.652344 270.929688 141.65625 271.460938 139.363281 C 271.578125 139.128906 271.636719 139.1875 271.695312 138.949219 C 271.8125 138.070312 271.871094 137.070312 272.226562 136.304688 L 272.046875 136.363281 C 272.460938 134.835938 272.929688 132.660156 273.460938 131.015625 L 273.636719 129.015625 C 274.515625 126.488281 275.105469 122.902344 275.339844 120.789062 C 275.574219 119.847656 275.929688 118.4375 275.988281 118.4375 C 275.929688 118.671875 275.929688 119.023438 275.867188 119.496094 C 276.222656 118.085938 276.75 116.378906 276.691406 115.554688 C 276.984375 114.085938 277.101562 114.558594 277.398438 113.441406 C 277.457031 112.910156 277.574219 112.265625 277.691406 111.617188 C 277.75 111.265625 277.867188 110.855469 277.984375 110.441406 C 278.101562 109.972656 278.21875 109.5625 278.335938 109.089844 C 277.632812 109.5625 276.867188 109.855469 276.222656 110.207031 Z M 268.34375 114.320312 L 267.167969 114.910156 C 267.464844 114.734375 267.816406 114.5 268.167969 114.320312 Z M 263.523438 116.671875 C 263.464844 116.671875 263.523438 116.671875 263.523438 116.671875 Z M 244.421875 125.960938 L 242.246094 127.019531 C 243.011719 126.605469 243.65625 126.3125 244.421875 125.960938 Z M 235.132812 130.488281 L 234.78125 130.664062 C 234.957031 130.546875 235.074219 130.488281 235.253906 130.367188 Z M 227.140625 134.308594 L 226.90625 134.425781 L 226.316406 134.71875 C 226.609375 134.601562 226.847656 134.484375 227.140625 134.308594 Z M 181.46875 156.351562 C 181.117188 156.585938 181.234375 156.585938 181.117188 156.703125 C 184.347656 155.175781 188.109375 153.292969 190.285156 152.292969 L 175.53125 159.40625 C 177.472656 158.40625 179.234375 157.347656 181.46875 156.351562 Z M 200.925781 166.167969 L 201.984375 166.34375 C 201.6875 166.285156 201.394531 166.226562 200.925781 166.167969 Z M 203.628906 166.753906 C 203.863281 166.753906 203.921875 166.695312 204.097656 166.695312 L 206.15625 167.046875 Z M 214.621094 163.167969 C 213.914062 163.757812 213.796875 163.757812 212.914062 164.460938 L 214.328125 163.34375 C 214.386719 163.285156 214.445312 163.285156 214.621094 163.167969 Z M 264.582031 121.789062 L 265.933594 120.613281 C 265.523438 120.964844 265.113281 121.375 264.582031 121.789062 Z M 269.933594 117.789062 C 270.34375 117.378906 270.695312 117.085938 270.8125 116.96875 L 272.046875 115.910156 C 272.226562 115.792969 272.8125 115.203125 273.460938 114.617188 C 273.695312 114.382812 273.929688 114.144531 274.105469 114.027344 C 274.398438 113.734375 274.574219 113.558594 274.695312 113.5 C 274.753906 113.441406 274.753906 113.441406 274.871094 113.382812 L 272.636719 115.675781 C 272.34375 115.910156 271.929688 116.320312 271.460938 116.671875 C 271.109375 117.027344 270.695312 117.378906 270.109375 117.847656 C 269.695312 118.085938 269.578125 118.144531 269.933594 117.789062 Z M 271.402344 116.789062 C 271.34375 116.789062 271.34375 116.851562 271.226562 116.910156 C 271.460938 116.730469 271.753906 116.4375 271.929688 116.261719 Z M 264.464844 123.667969 L 264.40625 123.960938 L 263.230469 125.195312 C 263.230469 125.078125 263.289062 124.84375 264.464844 123.667969 Z M 258.292969 130.132812 C 258.234375 130.25 258.175781 130.308594 258.117188 130.367188 L 257.53125 130.957031 C 257.765625 130.722656 258.058594 130.429688 258.292969 130.132812 Z M 228.960938 160.113281 C 228.84375 160.289062 228.902344 160.289062 228.960938 160.289062 L 228.492188 160.757812 Z M 228.023438 161.289062 L 224.320312 165.050781 C 225.554688 163.757812 226.609375 162.464844 228.023438 161.289062 Z M 218.382812 171.105469 Z M 218.5 171.515625 C 218.558594 171.515625 218.5 171.515625 218.5 171.515625 Z M 269.226562 147.472656 C 268.933594 148.707031 269.109375 147.589844 269.109375 147.53125 L 270.109375 143.242188 C 269.757812 144.652344 269.460938 146.121094 269.226562 147.472656 Z M 271.695312 137.480469 C 270.871094 140.949219 271.226562 140.304688 270.519531 143.535156 C 269.875 145.121094 271.285156 140.304688 270.402344 143.125 C 270.695312 141.183594 271.050781 139.773438 271.167969 138.65625 L 271.8125 135.835938 C 271.695312 136.542969 271.402344 137.597656 271.285156 138.539062 C 271.402344 138.128906 271.929688 136.128906 271.695312 137.480469 Z M 273.105469 131.25 C 272.578125 133.308594 272.460938 133.542969 272.285156 134.011719 L 273.105469 130.546875 C 273.164062 130.488281 273.222656 130.488281 273.105469 131.25 Z M 274.632812 124.019531 L 274.929688 122.726562 C 274.929688 122.785156 274.929688 122.785156 274.988281 122.84375 C 274.753906 123.375 274.695312 123.785156 274.632812 124.019531 Z M 274.28125 125.492188 L 274.515625 124.433594 C 274.515625 124.550781 274.515625 124.609375 274.28125 125.492188 Z M 274.28125 125.492188 " fill-opacity="1" fill-rule="nonzero"/></g><path fill="#ededed" d="M 275.339844 122.023438 L 275.867188 120.375 L 275.691406 120.492188 C 275.632812 121.082031 275.515625 121.609375 275.339844 122.023438 Z M 275.339844 122.023438 " fill-opacity="1" fill-rule="nonzero"/><path fill="#ededed" d="M 275.691406 120.613281 C 275.808594 120.257812 275.867188 119.90625 275.867188 119.613281 C 275.808594 119.964844 275.75 120.316406 275.691406 120.613281 Z M 275.691406 120.613281 " fill-opacity="1" fill-rule="nonzero"/><path fill="#ededed" d="M 254.589844 120.613281 C 255.0625 120.433594 255.941406 120.023438 256.238281 119.789062 C 255.941406 119.964844 255.238281 120.257812 254.589844 120.613281 Z M 254.589844 120.613281 " fill-opacity="1" fill-rule="nonzero"/><path fill="#ededed" d="M 255.414062 120.316406 L 254.53125 120.730469 L 255.296875 120.433594 Z M 255.414062 120.316406 " fill-opacity="1" fill-rule="nonzero"/><path fill="#ededed" d="M 180.527344 156.996094 C 180.878906 156.820312 180.996094 156.703125 181.117188 156.644531 C 180.644531 156.878906 180.175781 157.113281 179.761719 157.289062 Z M 180.527344 156.996094 " fill-opacity="1" fill-rule="nonzero"/><path fill="#ededed" d="M 209.800781 204.078125 C 209.742188 204.019531 209.800781 203.785156 209.683594 203.902344 C 209.683594 203.960938 209.742188 204.078125 209.800781 204.078125 Z M 209.800781 204.078125 " fill-opacity="1" fill-rule="nonzero"/><path fill="#ededed" d="M 209.859375 203.550781 L 209.859375 203.609375 L 209.800781 203.726562 C 209.800781 203.785156 209.800781 203.785156 209.742188 203.84375 L 209.859375 203.726562 C 209.917969 203.726562 209.917969 203.902344 209.917969 203.902344 Z M 209.859375 203.550781 " fill-opacity="1" fill-rule="nonzero"/><path fill="#ededed" d="M 210.445312 202.902344 C 210.445312 202.84375 210.503906 202.84375 210.503906 202.785156 C 210.445312 202.785156 210.445312 202.84375 210.445312 202.902344 Z M 210.445312 202.902344 " fill-opacity="1" fill-rule="nonzero"/><path fill="#ededed" d="M 210.503906 202.785156 C 210.683594 202.726562 210.742188 202.960938 210.5625 203.082031 C 210.445312 203.316406 210.328125 203.140625 210.269531 203.375 L 210.5625 203.257812 C 210.800781 202.960938 210.683594 202.609375 210.742188 202.433594 C 210.5625 202.492188 210.5625 202.609375 210.503906 202.785156 Z M 210.503906 202.785156 " fill-opacity="1" fill-rule="nonzero"/><path fill="#ededed" d="M 210.445312 202.902344 C 210.445312 202.960938 210.386719 202.960938 210.386719 203.019531 C 210.445312 202.960938 210.445312 202.902344 210.445312 202.902344 Z M 210.445312 202.902344 " fill-opacity="1" fill-rule="nonzero"/><path fill="#ededed" d="M 210.035156 203.433594 L 210.152344 203.433594 L 210.09375 203.257812 Z M 210.035156 203.433594 " fill-opacity="1" fill-rule="nonzero"/><path fill="#ededed" d="M 211.210938 201.785156 C 211.386719 202.023438 210.800781 202.257812 210.917969 202.433594 C 211.09375 202.140625 211.445312 202.082031 211.503906 202.199219 L 211.679688 201.847656 C 211.679688 201.726562 211.445312 201.726562 211.210938 201.785156 Z M 211.210938 201.785156 " fill-opacity="1" fill-rule="nonzero"/><path fill="#ededed" d="M 213.03125 199.847656 L 212.738281 200.671875 C 212.738281 200.550781 212.621094 200.550781 212.738281 200.375 C 212.445312 200.671875 212.5625 200.789062 212.386719 201.023438 C 212.152344 200.964844 212.738281 200.550781 212.445312 200.550781 C 212.328125 200.730469 212.09375 201.023438 212.152344 201.257812 L 211.796875 201.433594 L 212.09375 201.492188 C 212.269531 201.433594 212.09375 201.140625 212.328125 201.199219 C 212.445312 201.257812 212.386719 201.375 212.328125 201.433594 C 212.445312 201.199219 212.855469 201.082031 213.152344 200.671875 C 213.328125 200.375 212.914062 200.199219 213.03125 199.847656 Z M 213.03125 199.847656 " fill-opacity="1" fill-rule="nonzero"/><path fill="#ededed" d="M 213.269531 200.023438 L 213.386719 200.082031 Z M 213.269531 200.023438 " fill-opacity="1" fill-rule="nonzero"/><path fill="#ededed" d="M 214.328125 198.613281 L 214.445312 198.378906 C 214.148438 198.4375 213.914062 198.613281 213.5625 199.082031 L 213.445312 199.554688 L 213.269531 199.554688 C 213.328125 199.554688 213.328125 199.730469 213.386719 199.789062 C 213.738281 199.789062 213.679688 199.316406 213.796875 199.082031 C 214.265625 198.671875 213.855469 199.199219 214.207031 199.140625 C 214.089844 199.257812 214.03125 199.257812 213.855469 199.4375 C 214.328125 199.316406 214.445312 198.730469 214.503906 198.496094 C 214.445312 198.496094 214.386719 198.496094 214.328125 198.613281 Z M 214.328125 198.613281 " fill-opacity="1" fill-rule="nonzero"/><path fill="#ededed" d="M 213.09375 199.730469 C 213.210938 199.613281 213.210938 199.554688 213.269531 199.554688 C 213.152344 199.554688 213.09375 199.554688 213.09375 199.730469 Z M 213.09375 199.730469 " fill-opacity="1" fill-rule="nonzero"/><path fill="#ededed" d="M 214.5625 198.496094 C 214.5625 198.496094 214.621094 198.4375 214.621094 198.378906 C 214.5625 198.378906 214.5625 198.4375 214.5625 198.496094 Z M 214.5625 198.496094 " fill-opacity="1" fill-rule="nonzero"/><path fill="#ededed" d="M 214.265625 198.144531 C 214.265625 198.203125 214.148438 198.320312 214.207031 198.378906 L 214.445312 198.144531 Z M 214.265625 198.144531 " fill-opacity="1" fill-rule="nonzero"/><path fill="#ededed" d="M 221.613281 189.324219 C 221.496094 189.207031 221.734375 188.972656 221.792969 188.796875 C 221.496094 188.972656 221.671875 188.679688 221.496094 188.679688 C 221.261719 188.972656 221.320312 189.207031 221.027344 189.441406 C 221.027344 189.382812 220.96875 189.382812 220.910156 189.382812 C 220.675781 189.796875 220.320312 190.5 219.910156 190.796875 L 219.96875 190.734375 L 219.851562 190.855469 C 219.851562 190.855469 219.910156 190.855469 219.910156 190.796875 C 219.617188 191.089844 219.441406 191.382812 219.203125 191.792969 C 218.148438 192.96875 217.265625 194.378906 216.148438 195.613281 L 216.207031 195.96875 C 216.03125 195.96875 215.972656 196.261719 215.855469 196.144531 C 215.914062 196.085938 215.972656 196.027344 216.03125 195.910156 C 215.621094 196.027344 215.441406 196.671875 215.089844 196.96875 C 215.148438 196.96875 215.382812 197.027344 215.324219 197.144531 C 215.089844 196.910156 215.03125 197.554688 214.679688 197.4375 C 214.328125 197.730469 214.855469 197.613281 214.5625 197.964844 C 214.679688 198.082031 214.914062 197.671875 215.03125 197.671875 C 215.03125 197.847656 214.738281 197.964844 214.914062 198.082031 C 215.441406 197.554688 215.972656 196.261719 216.558594 195.320312 L 216.617188 195.496094 C 216.855469 194.96875 217.441406 194.261719 217.910156 194.085938 C 217.734375 194.085938 218.5 193.5 218.148438 193.324219 C 218.324219 193.265625 218.324219 193.203125 218.441406 193.085938 L 218.382812 192.96875 C 218.558594 192.734375 218.675781 192.910156 218.851562 192.617188 C 218.617188 192.675781 218.734375 192.5 218.675781 192.324219 C 219.027344 192.148438 219.441406 191.851562 219.734375 191.675781 C 219.675781 191.675781 219.617188 191.675781 219.5 191.734375 C 219.675781 191.558594 219.558594 191.5 219.558594 191.441406 C 219.675781 191.265625 219.851562 191.382812 219.910156 191.5 C 220.203125 191.207031 220.027344 190.855469 220.320312 190.675781 L 220.144531 190.675781 C 220.378906 190.324219 220.734375 190.148438 220.96875 189.738281 C 221.261719 189.679688 220.851562 190.148438 220.851562 190.382812 C 220.96875 190.324219 221.085938 190.207031 221.144531 190.207031 C 221.203125 189.972656 221.261719 189.621094 221.320312 189.382812 C 221.378906 189.738281 221.734375 189.265625 221.851562 189.148438 C 221.910156 189.089844 221.792969 189.148438 221.613281 189.324219 Z M 221.613281 189.324219 " fill-opacity="1" fill-rule="nonzero"/><path fill="#ededed" d="M 221.261719 190.324219 C 221.261719 190.265625 221.320312 190.265625 221.320312 190.207031 L 221.261719 190.207031 Z M 221.261719 190.324219 " fill-opacity="1" fill-rule="nonzero"/><path fill="#ededed" d="M 220.261719 191.558594 L 219.910156 191.734375 C 219.96875 191.792969 220.027344 191.792969 220.261719 191.558594 Z M 220.261719 191.558594 " fill-opacity="1" fill-rule="nonzero"/><path fill="#ededed" d="M 218.382812 193.734375 C 218.324219 193.792969 218.441406 193.792969 218.441406 193.910156 C 218.5 193.734375 218.5 193.675781 218.382812 193.734375 Z M 218.382812 193.734375 " fill-opacity="1" fill-rule="nonzero"/><path fill="#ededed" d="M 221.792969 189.5 L 221.851562 189.382812 L 221.613281 189.796875 Z M 221.792969 189.5 " fill-opacity="1" fill-rule="nonzero"/><path fill="#ededed" d="M 225.375 184.035156 C 225.375 183.859375 225.257812 183.800781 225.375 183.683594 C 225.023438 183.800781 224.847656 184.269531 224.554688 184.503906 C 224.203125 185.09375 224.847656 184.800781 224.4375 185.386719 L 224.203125 185.035156 C 223.789062 185.5625 223.144531 186.269531 223.085938 186.914062 C 223.027344 186.914062 222.90625 186.972656 222.96875 186.796875 C 222.730469 187.152344 223.261719 187.328125 222.789062 187.679688 C 222.96875 187.09375 222.496094 187.679688 222.378906 187.386719 L 222.4375 187.328125 C 222.203125 187.621094 222.027344 188.089844 221.851562 188.328125 C 221.910156 188.386719 222.203125 188.328125 221.96875 188.5625 C 222.085938 188.445312 222.144531 188.5625 222.203125 188.621094 C 222.320312 188.265625 222.496094 188.148438 222.554688 187.914062 C 222.789062 187.855469 222.496094 188.03125 222.730469 187.972656 L 222.789062 187.679688 C 222.96875 187.5625 222.789062 187.914062 222.96875 187.679688 C 222.90625 187.621094 223.027344 187.328125 223.203125 187.152344 L 223.203125 187.210938 C 223.261719 187.03125 223.496094 186.855469 223.261719 186.796875 L 223.554688 186.738281 L 223.4375 186.679688 C 223.789062 186.328125 224.203125 186.386719 224.496094 185.738281 C 224.378906 185.859375 224.378906 185.679688 224.4375 185.5625 C 224.203125 185.738281 224.320312 185.917969 224.140625 186.152344 C 224.023438 186.09375 224.140625 185.621094 223.847656 185.859375 C 224.203125 185.679688 224.261719 185.328125 224.613281 185.445312 C 224.90625 185.152344 224.847656 184.859375 225.199219 184.625 L 225.257812 184.683594 C 225.140625 184.445312 225.554688 184.445312 225.554688 184.09375 L 225.375 184.210938 C 225.316406 184.210938 225.375 184.09375 225.375 184.035156 L 225.496094 184.035156 C 225.375 183.917969 225.671875 183.507812 225.671875 183.390625 C 225.554688 183.507812 225.496094 183.800781 225.375 184.035156 Z M 225.375 184.035156 " fill-opacity="1" fill-rule="nonzero"/><path fill="#ededed" d="M 223.203125 187.5625 L 223.203125 187.386719 C 223.203125 187.445312 223.144531 187.503906 223.203125 187.5625 Z M 223.203125 187.5625 " fill-opacity="1" fill-rule="nonzero"/><path fill="#ededed" d="M 228.433594 179.449219 C 228.257812 179.507812 228.257812 179.6875 228.199219 179.804688 C 228.550781 179.507812 228.375 179.921875 228.433594 180.039062 C 228.257812 180.15625 228.199219 180.449219 228.082031 180.332031 L 228.140625 179.980469 C 227.492188 180.683594 226.730469 181.742188 226.082031 182.625 L 226.375 182.273438 C 226.433594 182.390625 226.316406 182.566406 226.257812 182.742188 L 226.609375 182.742188 C 226.492188 182.859375 226.433594 182.976562 226.375 182.917969 C 226.375 183.09375 226.492188 183.09375 226.609375 183.09375 C 226.433594 183.390625 226.316406 183.390625 226.257812 183.683594 C 226.789062 183.390625 226.433594 183.152344 226.964844 182.800781 L 226.789062 182.449219 C 226.964844 182.273438 226.847656 182.625 227.082031 182.449219 C 227.140625 182.15625 226.671875 182.566406 226.730469 182.214844 C 226.90625 182.15625 226.964844 181.800781 227.023438 181.742188 C 227.023438 181.917969 227.257812 181.976562 227.316406 181.976562 C 227.316406 181.859375 227.550781 181.742188 227.667969 181.625 C 227.257812 181.859375 227.84375 181.273438 227.433594 181.507812 C 227.316406 181.390625 227.492188 181.039062 227.726562 180.921875 C 227.785156 180.980469 227.667969 181.097656 227.609375 181.15625 C 227.726562 181.332031 227.84375 180.980469 228.023438 181.039062 C 228.140625 180.449219 229.019531 179.390625 228.433594 179.449219 Z M 228.433594 179.449219 " fill-opacity="1" fill-rule="nonzero"/><path fill="#ededed" d="M 226.082031 183.449219 L 226.199219 183.449219 L 226.140625 183.269531 Z M 226.082031 183.449219 " fill-opacity="1" fill-rule="nonzero"/><path fill="#ededed" d="M 225.847656 182.917969 C 225.90625 182.976562 225.847656 183.035156 225.90625 183.09375 C 226.082031 182.859375 226.023438 182.800781 225.847656 182.917969 Z M 225.847656 182.917969 " fill-opacity="1" fill-rule="nonzero"/><path fill="#ededed" d="M 228.316406 180.683594 L 228.492188 180.390625 L 228.316406 180.566406 C 228.375 180.566406 228.375 180.625 228.316406 180.683594 Z M 228.316406 180.683594 " fill-opacity="1" fill-rule="nonzero"/><path fill="#ededed" d="M 229.140625 178.570312 C 229.078125 178.628906 229.019531 178.746094 229.019531 178.804688 C 228.902344 178.980469 228.785156 179.097656 228.550781 179.273438 C 228.550781 179.625 228.902344 179.390625 228.960938 179.566406 C 229.140625 179.390625 228.902344 179.214844 229.019531 178.980469 C 229.199219 178.980469 229.257812 178.628906 229.433594 178.511719 C 229.375 178.511719 229.257812 178.511719 229.257812 178.453125 C 229.199219 178.453125 229.140625 178.511719 229.140625 178.570312 Z M 229.140625 178.570312 " fill-opacity="1" fill-rule="nonzero"/><path fill="#ededed" d="M 229.609375 178.980469 L 229.726562 178.746094 L 229.667969 178.746094 Z M 229.609375 178.980469 " fill-opacity="1" fill-rule="nonzero"/><path fill="#ededed" d="M 214.914062 182.507812 L 215.03125 182.507812 L 215.03125 182.683594 C 215.03125 182.625 215.089844 182.566406 215.03125 182.507812 L 214.914062 182.507812 C 214.972656 182.390625 215.03125 182.332031 215.089844 182.273438 Z M 214.914062 182.507812 " fill-opacity="1" fill-rule="nonzero"/><path fill="#ededed" d="M 213.210938 189.03125 C 213.269531 188.972656 213.328125 188.796875 213.328125 188.738281 C 213.269531 188.738281 213.210938 188.855469 213.210938 189.03125 Z M 213.210938 189.03125 " fill-opacity="1" fill-rule="nonzero"/><path fill="#ededed" d="M 213.386719 188.914062 L 213.328125 189.089844 Z M 213.386719 188.914062 " fill-opacity="1" fill-rule="nonzero"/><path fill="#ededed" d="M 212.210938 194.792969 C 212.210938 193.851562 212.796875 193.734375 212.503906 192.910156 L 212.738281 193.085938 C 212.914062 192.734375 212.5625 192.265625 212.972656 191.910156 L 212.855469 191.910156 C 212.914062 191.792969 212.972656 191.792969 212.972656 191.675781 L 212.914062 191.675781 C 212.914062 191.382812 212.972656 191.207031 213.09375 190.914062 C 213.210938 190.914062 213.09375 191.03125 213.09375 191.148438 C 213.210938 191.03125 213.09375 190.796875 213.152344 190.558594 C 213.269531 190.382812 213.269531 190.617188 213.269531 190.617188 C 213.328125 189.914062 213.679688 189.738281 213.445312 189.148438 C 213.386719 189.089844 213.269531 189.265625 213.328125 189.03125 C 213.09375 189.441406 213.152344 189.796875 213.09375 190.207031 L 213.152344 190.089844 C 213.445312 190.5 212.972656 190.324219 213.03125 190.855469 C 212.914062 190.675781 212.972656 190.441406 212.914062 190.324219 C 212.445312 190.796875 212.914062 191.207031 212.386719 191.5 L 212.386719 191.441406 C 212.328125 191.5 212.328125 191.675781 212.328125 191.851562 C 212.386719 191.851562 212.445312 191.675781 212.503906 191.617188 C 212.503906 191.734375 212.621094 191.851562 212.679688 191.910156 C 212.445312 192.03125 212.679688 192.148438 212.5625 192.324219 C 212.386719 192.382812 212.503906 192.089844 212.445312 191.96875 L 212.445312 192.265625 C 212.386719 192.5 212.210938 192.441406 212.09375 192.558594 C 212.152344 192.792969 212.210938 192.441406 212.328125 192.675781 C 212.035156 192.910156 211.738281 194.085938 211.738281 194.675781 C 211.796875 194.5 211.621094 194.558594 211.679688 194.320312 C 211.621094 194.378906 211.621094 194.734375 211.738281 194.734375 C 211.738281 195.144531 211.503906 195.613281 211.269531 195.96875 L 211.445312 195.910156 C 211.5625 196.261719 211.09375 196.613281 211.035156 197.203125 C 211.035156 197.378906 211.269531 197.613281 211.09375 197.90625 C 210.976562 197.789062 211.035156 197.613281 210.917969 197.613281 L 210.976562 198.140625 C 210.859375 198.203125 210.800781 198.789062 210.683594 198.554688 C 210.800781 198.90625 210.445312 199.4375 210.800781 199.316406 C 211.09375 197.90625 211.859375 196.027344 212.035156 194.320312 Z M 212.210938 194.792969 " fill-opacity="1" fill-rule="nonzero"/><path fill="#ededed" d="M 210.742188 199.789062 L 210.625 199.554688 C 210.503906 199.730469 210.683594 200.023438 210.800781 200.023438 C 210.800781 199.90625 210.917969 199.730469 210.859375 199.671875 C 210.800781 199.730469 210.742188 199.671875 210.742188 199.789062 Z M 210.742188 199.789062 " fill-opacity="1" fill-rule="nonzero"/><g clip-path="url(#aec539f5a4)"><path fill="#ededed" d="M 209.683594 203.375 C 209.683594 203.433594 209.742188 203.433594 209.800781 203.492188 C 209.976562 202.726562 210.210938 201.785156 210.445312 201.492188 C 210.5625 201.257812 210.328125 201.140625 210.386719 200.789062 L 210.625 200.671875 C 210.5625 200.492188 210.917969 199.964844 210.5625 200.082031 C 210.503906 200.082031 210.625 200.257812 210.5625 200.433594 L 210.503906 200.375 L 210.445312 200.730469 L 210.386719 200.613281 C 210.09375 201.023438 210.625 201.023438 210.386719 201.609375 L 210.152344 201.550781 C 210.035156 201.964844 210.035156 202.140625 209.800781 202.433594 C 209.800781 202.433594 209.917969 202.492188 209.917969 202.375 C 209.976562 202.316406 210.09375 202.257812 210.152344 202.316406 C 210.152344 202.960938 210.035156 202.199219 209.800781 202.550781 C 209.800781 202.960938 209.742188 203.667969 209.566406 204.019531 C 209.507812 204.019531 209.390625 204.078125 209.210938 204.195312 C 209.210938 204.253906 209.152344 204.316406 209.152344 204.433594 C 208.800781 204.492188 208.917969 204.375 208.625 204.667969 C 208.683594 204.726562 208.742188 204.84375 208.859375 204.902344 L 208.800781 205.019531 L 208.683594 204.960938 L 208.800781 205.078125 L 208.800781 205.019531 L 208.917969 204.902344 L 208.976562 204.902344 C 208.976562 204.84375 208.917969 204.84375 208.917969 204.785156 L 208.859375 204.726562 L 208.859375 204.609375 C 208.976562 204.667969 208.976562 204.726562 209.09375 204.785156 C 209.09375 204.84375 209.09375 204.902344 209.152344 204.902344 C 209.210938 204.84375 209.210938 204.667969 209.269531 204.550781 C 209.328125 204.492188 209.328125 204.375 209.390625 204.375 C 209.390625 204.433594 209.390625 204.550781 209.328125 204.667969 C 209.269531 204.785156 209.210938 204.84375 209.210938 204.960938 C 209.269531 204.960938 209.269531 204.902344 209.328125 204.902344 C 209.449219 204.902344 209.566406 205.019531 209.566406 205.3125 C 209.742188 205.019531 209.742188 204.726562 209.742188 204.433594 L 209.859375 204.550781 L 210.035156 204.195312 C 209.859375 204.136719 209.800781 204.136719 209.742188 204.078125 C 209.625 203.84375 209.625 203.609375 209.683594 203.375 Z M 208.917969 204.726562 L 208.917969 204.609375 C 208.976562 204.609375 208.976562 204.667969 208.917969 204.726562 Z M 209.449219 204.84375 C 209.390625 204.902344 209.390625 204.84375 209.449219 204.84375 C 209.449219 204.726562 209.390625 204.667969 209.507812 204.550781 C 209.507812 204.609375 209.449219 204.726562 209.449219 204.84375 Z M 209.449219 204.84375 " fill-opacity="1" fill-rule="nonzero"/></g><path fill="#ededed" d="M 208.683594 204.375 C 208.742188 204.375 208.859375 204.433594 208.917969 204.433594 C 208.859375 204.433594 208.742188 204.316406 208.683594 204.375 Z M 208.683594 204.375 " fill-opacity="1" fill-rule="nonzero"/><path fill="#ededed" d="M 208.859375 204.253906 L 208.566406 204.136719 L 208.683594 204.253906 C 208.683594 204.195312 208.800781 204.316406 208.859375 204.253906 Z M 208.859375 204.253906 " fill-opacity="1" fill-rule="nonzero"/><path fill="#ededed" d="M 208.625 203.609375 C 208.507812 203.667969 208.566406 203.726562 208.625 203.785156 C 208.683594 203.726562 208.917969 203.785156 208.859375 203.902344 C 208.917969 204.019531 208.683594 204.019531 208.859375 204.078125 L 209.035156 203.960938 C 209.035156 203.726562 208.742188 203.667969 208.625 203.609375 Z M 208.625 203.609375 " fill-opacity="1" fill-rule="nonzero"/><path fill="#ededed" d="M 208.683594 203.785156 L 208.683594 203.84375 C 208.742188 203.84375 208.683594 203.84375 208.683594 203.785156 Z M 208.683594 203.785156 " fill-opacity="1" fill-rule="nonzero"/><path fill="#ededed" d="M 208.683594 204.078125 L 208.683594 204.136719 L 208.800781 204.078125 Z M 208.683594 204.078125 " fill-opacity="1" fill-rule="nonzero"/><path fill="#ededed" d="M 209.09375 203.082031 C 208.976562 203.019531 208.800781 203.082031 208.683594 203.199219 C 208.976562 203.199219 208.683594 203.492188 208.859375 203.492188 C 208.859375 203.316406 209.035156 203.199219 209.210938 203.257812 Z M 209.09375 203.082031 " fill-opacity="1" fill-rule="nonzero"/><path fill="#ededed" d="M 209.09375 202.726562 C 209.210938 202.726562 209.210938 202.785156 209.269531 202.84375 C 209.210938 202.726562 209.507812 202.550781 209.449219 202.375 C 209.449219 202.140625 208.976562 202.199219 208.859375 202.082031 L 209.152344 202.492188 C 209.09375 202.433594 208.976562 202.492188 208.976562 202.375 C 208.917969 202.550781 209.09375 202.550781 209.09375 202.726562 C 208.859375 202.785156 209.09375 202.492188 208.859375 202.550781 C 208.859375 202.667969 208.859375 202.785156 209.09375 202.902344 L 208.917969 203.082031 L 209.210938 203.019531 C 209.210938 202.84375 208.917969 202.785156 209.09375 202.726562 Z M 209.09375 202.726562 " fill-opacity="1" fill-rule="nonzero"/><path fill="#ededed" d="M 209.152344 202.023438 L 209.269531 201.964844 L 209.152344 201.964844 Z M 209.152344 202.023438 " fill-opacity="1" fill-rule="nonzero"/><path fill="#ededed" d="M 209.152344 201.082031 C 209.152344 201.140625 209.035156 201.140625 209.09375 201.199219 L 209.035156 201.082031 C 208.859375 201.199219 208.800781 201.316406 208.800781 201.609375 L 208.976562 201.785156 C 208.976562 201.785156 208.917969 201.847656 208.859375 201.847656 C 208.917969 201.847656 209.035156 201.90625 209.09375 201.90625 C 209.328125 201.785156 209.035156 201.667969 208.976562 201.550781 C 209.09375 201.257812 209.09375 201.550781 209.328125 201.433594 C 209.328125 201.492188 209.269531 201.492188 209.269531 201.609375 C 209.507812 201.433594 209.269531 201.199219 209.152344 201.082031 Z M 209.152344 201.082031 " fill-opacity="1" fill-rule="nonzero"/><path fill="#ededed" d="M 208.800781 201.90625 C 208.800781 201.847656 208.800781 201.785156 208.859375 201.785156 C 208.742188 201.847656 208.742188 201.847656 208.800781 201.90625 Z M 208.800781 201.90625 " fill-opacity="1" fill-rule="nonzero"/><path fill="#ededed" d="M 209.152344 201.023438 L 209.152344 201.082031 C 209.210938 201.082031 209.210938 201.023438 209.152344 201.023438 Z M 209.152344 201.023438 " fill-opacity="1" fill-rule="nonzero"/><path fill="#ededed" d="M 208.859375 201.140625 L 208.859375 201.023438 L 208.742188 201.082031 C 208.800781 201.082031 208.800781 201.140625 208.859375 201.140625 Z M 208.859375 201.140625 " fill-opacity="1" fill-rule="nonzero"/><path fill="#ededed" d="M 209.035156 195.851562 C 209.269531 195.96875 209.269531 195.671875 209.269531 195.613281 C 209.152344 195.613281 209.09375 195.671875 209.152344 195.792969 C 209.035156 195.792969 209.035156 195.613281 208.976562 195.554688 C 208.917969 195.734375 208.800781 195.554688 208.683594 195.613281 C 208.683594 195.792969 208.859375 195.851562 208.800781 196.027344 L 208.683594 196.027344 C 208.742188 196.261719 208.917969 196.613281 208.800781 196.789062 C 208.742188 196.96875 208.800781 197.144531 208.859375 197.378906 C 208.800781 198.082031 208.917969 198.847656 208.800781 199.613281 L 209.09375 199.730469 C 208.976562 199.789062 209.09375 199.90625 208.917969 199.90625 C 208.976562 199.847656 208.917969 199.847656 208.917969 199.789062 C 208.683594 199.964844 208.917969 200.199219 208.859375 200.433594 C 208.917969 200.433594 209.152344 200.375 209.152344 200.433594 C 208.859375 200.433594 209.152344 200.671875 208.800781 200.730469 C 208.742188 200.90625 209.035156 200.730469 209.035156 200.964844 C 209.210938 200.964844 209.09375 200.789062 209.269531 200.730469 C 209.390625 200.789062 209.210938 200.90625 209.390625 200.90625 C 209.449219 200.550781 209.09375 199.964844 209.035156 199.4375 L 209.210938 199.496094 C 209.09375 199.257812 209.09375 198.789062 209.328125 198.613281 C 209.152344 198.671875 209.390625 198.261719 209.035156 198.261719 C 209.09375 198.203125 209.09375 198.203125 209.152344 198.082031 L 209.035156 198.082031 C 209.035156 197.964844 209.210938 197.964844 209.210938 197.847656 C 209.035156 197.964844 209.035156 197.847656 208.859375 197.789062 C 209.035156 197.613281 209.152344 197.4375 209.328125 197.261719 C 209.269531 197.261719 209.210938 197.261719 209.152344 197.320312 C 209.210938 197.203125 209.035156 197.261719 209.035156 197.203125 C 209.035156 197.085938 209.210938 197.085938 209.328125 197.144531 C 209.390625 196.96875 209.035156 196.847656 209.152344 196.730469 L 208.976562 196.789062 C 208.917969 196.613281 209.09375 196.4375 209.035156 196.203125 C 209.269531 196.085938 209.210938 196.378906 209.328125 196.4375 C 209.390625 196.378906 209.390625 196.320312 209.449219 196.261719 C 209.269531 196.144531 209.09375 195.96875 209.035156 195.851562 Z M 209.035156 195.851562 " fill-opacity="1" fill-rule="nonzero"/><path fill="#ededed" d="M 209.449219 196.261719 L 209.449219 196.203125 L 209.390625 196.203125 C 209.390625 196.261719 209.449219 196.261719 209.449219 196.261719 Z M 209.449219 196.261719 " fill-opacity="1" fill-rule="nonzero"/><path fill="#ededed" d="M 209.269531 197.144531 C 209.328125 197.144531 209.390625 197.085938 209.449219 196.96875 Z M 209.269531 197.144531 " fill-opacity="1" fill-rule="nonzero"/><path fill="#ededed" d="M 209.269531 198.320312 C 209.269531 198.378906 209.328125 198.320312 209.390625 198.378906 C 209.390625 198.261719 209.328125 198.203125 209.269531 198.320312 Z M 209.269531 198.320312 " fill-opacity="1" fill-rule="nonzero"/><path fill="#ededed" d="M 209.328125 195.734375 L 209.390625 195.96875 L 209.390625 195.792969 Z M 209.328125 195.734375 " fill-opacity="1" fill-rule="nonzero"/><path fill="#ededed" d="M 208.800781 194.558594 C 208.742188 194.558594 208.683594 194.617188 208.625 194.558594 C 208.625 194.734375 209.152344 194.675781 209.035156 194.910156 C 208.800781 194.675781 208.800781 194.96875 208.566406 194.910156 L 208.566406 194.851562 C 208.566406 195.027344 208.742188 195.261719 208.683594 195.378906 C 208.800781 195.378906 208.917969 195.261719 208.917969 195.4375 C 208.917969 195.378906 209.035156 195.378906 209.152344 195.378906 C 209.035156 195.203125 209.09375 195.144531 208.976562 195.027344 C 209.09375 194.96875 209.035156 195.085938 209.152344 195.027344 L 209.035156 194.910156 C 209.09375 194.792969 209.152344 195.027344 209.210938 194.851562 C 209.152344 194.851562 209.035156 194.734375 209.09375 194.617188 L 209.152344 194.675781 C 209.09375 194.617188 209.152344 194.4375 208.976562 194.5 L 209.210938 194.378906 L 209.09375 194.378906 C 209.152344 194.144531 209.507812 194.027344 209.328125 193.734375 C 209.269531 193.792969 209.210938 193.734375 209.152344 193.675781 C 209.035156 193.792969 209.269531 193.851562 209.269531 193.96875 C 209.152344 193.96875 208.976562 193.792969 208.859375 193.910156 C 209.035156 193.734375 208.859375 193.617188 209.210938 193.558594 C 209.210938 193.382812 209.035156 193.265625 209.152344 193.085938 L 209.210938 193.085938 C 208.976562 193.027344 209.328125 192.910156 209.09375 192.792969 L 209.035156 192.910156 C 208.917969 192.910156 208.917969 192.851562 208.917969 192.792969 L 208.976562 192.792969 C 208.800781 192.792969 208.800781 192.558594 208.742188 192.5 C 208.683594 192.617188 208.859375 192.734375 208.917969 192.792969 C 208.800781 192.734375 208.683594 192.734375 208.683594 192.675781 C 208.507812 192.792969 208.625 193.027344 208.566406 193.203125 C 208.683594 193.5 208.976562 193.265625 208.976562 193.558594 L 208.566406 193.5 C 208.566406 193.851562 208.507812 194.261719 208.800781 194.558594 Z M 208.800781 194.558594 " fill-opacity="1" fill-rule="nonzero"/><path fill="#ededed" d="M 208.625 190.734375 L 208.449219 190.617188 C 208.390625 191.03125 208.390625 191.617188 208.449219 192.148438 L 208.449219 191.910156 C 208.566406 191.910156 208.566406 192.03125 208.625 192.148438 L 208.917969 192.03125 C 208.917969 192.089844 208.917969 192.148438 208.859375 192.148438 C 208.976562 192.207031 209.035156 192.207031 209.152344 192.148438 C 209.210938 192.324219 209.09375 192.324219 209.269531 192.441406 C 209.507812 192.148438 209.09375 192.207031 209.269531 191.910156 L 208.917969 191.851562 C 208.976562 191.734375 209.09375 191.910156 209.152344 191.792969 C 209.035156 191.675781 208.917969 191.910156 208.742188 191.792969 C 208.859375 191.734375 208.683594 191.617188 208.683594 191.558594 C 208.800781 191.617188 209.035156 191.558594 209.035156 191.558594 C 208.976562 191.5 209.09375 191.382812 209.09375 191.324219 C 208.976562 191.5 209.035156 191.148438 208.859375 191.324219 C 208.742188 191.324219 208.625 191.148438 208.742188 191.03125 C 208.859375 191.03125 208.800781 191.089844 208.800781 191.148438 C 208.976562 191.207031 208.917969 191.03125 209.09375 190.972656 C 208.859375 190.796875 208.859375 190.148438 208.449219 190.324219 C 208.390625 190.382812 208.449219 190.441406 208.507812 190.5 C 208.566406 190.324219 208.742188 190.5 208.800781 190.5 C 208.625 190.617188 208.800781 190.796875 208.625 190.734375 Z M 208.625 190.734375 " fill-opacity="1" fill-rule="nonzero"/><path fill="#ededed" d="M 209.035156 192.441406 L 208.917969 192.324219 L 208.976562 192.441406 Z M 209.035156 192.441406 " fill-opacity="1" fill-rule="nonzero"/><path fill="#ededed" d="M 208.449219 192.324219 C 208.507812 192.324219 208.507812 192.382812 208.625 192.382812 C 208.625 192.207031 208.566406 192.207031 208.449219 192.324219 Z M 208.449219 192.324219 " fill-opacity="1" fill-rule="nonzero"/><path fill="#ededed" d="M 209.035156 190.796875 L 208.976562 190.617188 L 208.917969 190.734375 C 209.035156 190.734375 209.035156 190.796875 209.035156 190.796875 Z M 209.035156 190.796875 " fill-opacity="1" fill-rule="nonzero"/><path fill="#ededed" d="M 208.332031 190.265625 C 208.507812 190.382812 208.683594 190.207031 208.859375 190.265625 C 208.917969 190.148438 208.566406 190.148438 208.507812 190.03125 C 208.683594 189.972656 208.449219 189.855469 208.507812 189.738281 L 208.332031 189.738281 C 208.332031 189.914062 208.507812 190.03125 208.332031 190.265625 Z M 208.332031 190.265625 " fill-opacity="1" fill-rule="nonzero"/><path fill="#ededed" d="M 209.210938 188.914062 C 209.09375 188.738281 209.035156 188.914062 208.917969 188.914062 C 208.917969 188.796875 208.800781 188.738281 208.859375 188.621094 C 208.976562 188.621094 208.976562 188.679688 208.976562 188.738281 C 209.210938 188.679688 208.917969 188.621094 209.09375 188.503906 C 209.09375 188.503906 209.035156 188.5625 208.976562 188.503906 C 209.035156 188.207031 208.800781 188.328125 208.917969 187.972656 C 208.859375 187.914062 208.859375 187.855469 208.683594 187.855469 C 208.859375 187.679688 208.859375 187.738281 209.035156 187.503906 C 208.976562 187.503906 208.742188 187.621094 208.566406 187.5625 C 208.800781 187.210938 208.507812 187.210938 208.742188 186.972656 C 208.742188 186.972656 208.800781 187.03125 208.800781 187.09375 C 209.035156 187.09375 208.742188 186.914062 208.800781 186.796875 L 209.035156 186.796875 C 208.976562 186.679688 208.859375 186.503906 209.035156 186.328125 L 209.152344 186.386719 C 208.976562 186.09375 209.035156 185.738281 208.976562 185.503906 L 209.09375 185.386719 C 208.917969 185.035156 209.035156 185.738281 208.683594 185.445312 C 209.09375 185.386719 208.566406 185.269531 208.683594 185.09375 C 208.859375 184.976562 208.742188 185.269531 208.976562 185.210938 C 208.742188 185.152344 208.917969 185.09375 208.859375 185.035156 C 209.035156 185.035156 208.859375 184.800781 209.09375 184.859375 L 208.742188 184.503906 C 208.859375 184.445312 208.859375 184.328125 208.800781 184.269531 C 208.800781 184.445312 208.507812 184.210938 208.449219 184.445312 C 208.566406 184.742188 208.625 185.269531 208.507812 185.679688 C 208.800781 185.738281 208.507812 185.917969 208.742188 185.976562 C 208.683594 185.976562 208.566406 186.035156 208.507812 186.035156 C 208.566406 186.269531 208.683594 185.976562 208.742188 186.035156 C 208.800781 186.152344 208.625 186.210938 208.507812 186.210938 C 208.507812 186.386719 208.566406 186.210938 208.742188 186.328125 L 208.449219 186.445312 C 208.566406 187.03125 208.742188 187.796875 208.566406 188.445312 L 208.742188 188.386719 C 208.625 188.679688 209.152344 188.855469 208.742188 189.148438 L 208.917969 189.265625 C 208.800781 189.207031 208.625 189.324219 208.507812 189.265625 C 208.566406 189.324219 208.507812 189.441406 208.566406 189.5 L 208.625 189.324219 C 208.800781 189.441406 208.683594 189.5625 208.566406 189.5625 C 208.742188 189.796875 208.859375 189.441406 209.035156 189.382812 C 208.683594 189.207031 209.328125 189.207031 209.210938 188.914062 Z M 209.210938 188.914062 " fill-opacity="1" fill-rule="nonzero"/><path fill="#ededed" d="M 208.917969 189.796875 L 208.976562 189.855469 L 208.976562 189.738281 Z M 208.917969 189.796875 " fill-opacity="1" fill-rule="nonzero"/><path fill="#ededed" d="M 208.332031 177.511719 C 208.742188 177.570312 208.15625 178.097656 208.683594 178.097656 C 208.507812 178.332031 208.742188 178.097656 208.566406 178.390625 C 208.507812 178.390625 208.507812 178.332031 208.507812 178.332031 C 208.390625 178.453125 208.742188 178.511719 208.507812 178.628906 C 208.449219 178.863281 208.625 178.6875 208.800781 178.804688 C 208.742188 179.039062 208.683594 178.980469 208.449219 179.097656 C 208.683594 179.097656 208.566406 179.273438 208.742188 179.390625 C 208.742188 179.332031 208.800781 179.214844 208.917969 179.273438 C 208.859375 179.566406 209.09375 179.507812 209.152344 179.804688 C 208.859375 179.921875 209.152344 179.507812 208.917969 179.746094 C 208.800781 179.566406 208.800781 179.449219 208.566406 179.332031 C 208.566406 179.566406 208.625 179.863281 208.742188 180.097656 C 208.683594 180.214844 208.625 180.039062 208.566406 180.15625 C 208.449219 180.390625 208.859375 180.566406 208.742188 180.742188 L 208.625 180.683594 C 208.800781 180.800781 208.566406 181.15625 208.683594 181.390625 C 208.742188 181.390625 208.800781 181.332031 208.859375 181.390625 C 208.507812 181.390625 209.035156 181.742188 208.800781 181.976562 C 209.035156 181.976562 209.152344 182.214844 209.210938 182.332031 C 209.152344 182.390625 209.035156 182.390625 208.976562 182.390625 C 209.09375 182.15625 208.742188 182.15625 208.625 181.976562 C 208.742188 182.15625 208.625 182.390625 208.800781 182.507812 L 208.625 182.449219 C 208.625 182.683594 209.035156 182.625 208.859375 182.859375 L 208.742188 182.859375 C 208.742188 183.328125 208.507812 183.859375 208.800781 184.210938 C 208.917969 184.269531 209.152344 184.035156 209.269531 184.035156 C 209.152344 183.800781 208.976562 183.683594 208.859375 183.507812 L 209.09375 183.507812 C 208.976562 183.449219 208.859375 183.269531 208.742188 183.390625 C 208.625 183.269531 208.917969 183.269531 208.800781 183.152344 C 209.035156 183.152344 209.035156 183.269531 209.210938 183.269531 L 209.09375 183.152344 C 209.152344 183.210938 209.152344 183.09375 209.269531 183.09375 C 208.976562 182.859375 209.390625 182.742188 209.269531 182.507812 L 209.210938 182.625 C 209.09375 182.625 209.09375 182.566406 209.09375 182.507812 C 209.269531 182.449219 209.269531 182.390625 209.328125 182.273438 C 209.210938 182.15625 209.035156 182.09375 209.035156 181.917969 C 209.269531 181.976562 209.152344 181.683594 209.328125 181.625 C 209.09375 181.566406 209.269531 181.332031 209.09375 181.332031 C 209.035156 181.273438 209.09375 181.15625 209.210938 181.15625 C 209.210938 181.15625 209.210938 181.214844 209.269531 181.214844 L 209.269531 181.15625 L 209.328125 181.15625 C 209.328125 181.097656 209.152344 181.097656 209.269531 180.980469 C 209.328125 180.980469 209.328125 181.039062 209.328125 181.097656 C 209.390625 180.921875 208.976562 180.742188 209.210938 180.566406 C 209.09375 180.507812 209.09375 180.332031 208.859375 180.332031 C 208.917969 180.273438 209.152344 180.273438 209.09375 180.15625 C 208.859375 180.039062 209.152344 179.980469 209.035156 179.863281 C 209.269531 180.039062 209.09375 179.863281 209.328125 179.980469 C 209.390625 179.863281 209.152344 179.6875 209.152344 179.507812 C 209.210938 179.507812 209.269531 179.507812 209.328125 179.449219 C 209.269531 179.390625 209.09375 179.273438 209.269531 179.214844 L 209.09375 179.214844 C 209.152344 179.097656 209.09375 178.921875 209.269531 178.746094 L 208.976562 178.570312 C 209.269531 178.332031 209.035156 178.039062 208.742188 177.863281 C 208.742188 177.804688 208.800781 177.6875 208.859375 177.6875 L 208.976562 177.804688 C 208.976562 177.6875 209.152344 177.511719 208.917969 177.453125 C 208.859375 177.335938 209.09375 177.335938 209.09375 177.277344 C 208.742188 177.039062 209.328125 176.570312 208.859375 176.453125 C 208.859375 176.570312 208.742188 176.746094 208.800781 176.921875 C 208.742188 176.863281 208.625 176.921875 208.625 176.863281 C 208.625 176.6875 208.800781 176.570312 208.683594 176.394531 L 208.976562 176.394531 C 209.328125 176.042969 208.566406 175.746094 208.976562 175.511719 C 208.917969 175.335938 208.859375 175.160156 208.683594 175.042969 L 208.800781 175.042969 C 208.742188 174.984375 208.625 174.6875 208.449219 174.867188 L 208.507812 174.925781 C 208.625 175.101562 208.332031 175.042969 208.273438 175.21875 C 208.332031 175.394531 208.683594 175.511719 208.625 175.6875 C 208.625 175.746094 208.566406 175.746094 208.449219 175.746094 C 208.449219 175.921875 208.683594 175.984375 208.742188 176.101562 C 207.976562 176.160156 208.917969 176.628906 208.449219 176.863281 C 208.507812 177.039062 208.449219 177.21875 208.566406 177.394531 C 208.332031 177.21875 208.507812 177.511719 208.332031 177.511719 Z M 208.332031 177.511719 " fill-opacity="1" fill-rule="nonzero"/><path fill="#ededed" d="M 209.035156 177.863281 L 208.917969 177.863281 L 208.917969 177.980469 Z M 209.035156 177.863281 " fill-opacity="1" fill-rule="nonzero"/><path fill="#ededed" d="M 208.859375 177.804688 L 208.976562 177.863281 C 208.917969 177.863281 208.859375 177.804688 208.859375 177.804688 Z M 208.859375 177.804688 " fill-opacity="1" fill-rule="nonzero"/><path fill="#ededed" d="M 208.859375 174.984375 C 208.859375 174.925781 208.917969 174.867188 208.859375 174.808594 C 208.800781 174.867188 208.800781 174.925781 208.859375 174.984375 Z M 208.859375 174.984375 " fill-opacity="1" fill-rule="nonzero"/><path fill="#ededed" d="M 208.742188 174.808594 L 208.683594 174.867188 L 208.742188 174.867188 Z M 208.742188 174.808594 " fill-opacity="1" fill-rule="nonzero"/><path fill="#ededed" d="M 208.214844 173.515625 L 208.332031 173.515625 C 208.332031 173.574219 208.273438 173.574219 208.273438 173.632812 L 208.332031 173.632812 C 208.449219 173.75 208.449219 173.867188 208.332031 173.984375 C 208.273438 173.984375 208.273438 173.925781 208.273438 173.867188 C 208.214844 173.925781 208.390625 174.042969 208.390625 174.160156 C 208.332031 174.21875 208.273438 174.160156 208.214844 174.160156 C 208.332031 174.453125 208.035156 174.628906 208.449219 174.808594 C 208.507812 174.808594 208.566406 174.75 208.625 174.867188 C 208.742188 174.6875 208.566406 174.511719 208.507812 174.335938 L 208.507812 174.394531 C 208.09375 174.277344 208.625 174.277344 208.449219 174.042969 C 208.625 174.101562 208.625 174.21875 208.683594 174.277344 C 208.976562 173.984375 208.449219 173.867188 208.859375 173.691406 C 208.917969 173.632812 208.800781 173.574219 208.800781 173.515625 C 208.742188 173.515625 208.742188 173.574219 208.683594 173.632812 C 208.625 173.574219 208.449219 173.515625 208.390625 173.515625 C 208.566406 173.453125 208.332031 173.394531 208.390625 173.335938 C 208.566406 173.277344 208.507812 173.453125 208.625 173.453125 L 208.507812 173.335938 C 208.507812 173.21875 208.683594 173.21875 208.742188 173.160156 C 208.625 173.042969 208.683594 173.21875 208.507812 173.160156 C 208.683594 173.042969 208.625 172.457031 208.507812 172.21875 C 208.507812 172.339844 208.683594 172.28125 208.625 172.339844 C 208.683594 172.28125 208.566406 172.160156 208.449219 172.160156 C 208.332031 171.984375 208.390625 171.75 208.507812 171.574219 L 208.390625 171.632812 C 208.15625 171.515625 208.566406 171.28125 208.449219 170.984375 C 208.449219 170.925781 208.09375 170.808594 208.214844 170.691406 C 208.390625 170.75 208.332031 170.808594 208.507812 170.808594 L 208.332031 170.574219 C 208.449219 170.515625 208.332031 170.28125 208.507812 170.339844 C 208.273438 170.222656 208.507812 169.929688 208.15625 170.046875 C 208.273438 170.691406 208.09375 171.632812 208.390625 172.398438 L 208.273438 172.28125 C 208.507812 172.691406 207.976562 172.808594 208.507812 173.160156 L 208.214844 173.101562 C 208.035156 173.160156 208.507812 173.335938 208.214844 173.515625 Z M 208.214844 173.515625 " fill-opacity="1" fill-rule="nonzero"/><path fill="#ededed" d="M 208.15625 169.8125 L 208.332031 169.871094 C 208.390625 169.75 208.15625 169.691406 208.035156 169.691406 C 208.09375 169.75 207.976562 169.8125 208.09375 169.871094 C 208.15625 169.8125 208.214844 169.8125 208.15625 169.8125 Z M 208.15625 169.8125 " fill-opacity="1" fill-rule="nonzero"/><path fill="#ededed" d="M 207.976562 167.929688 C 207.917969 168.046875 207.976562 168.046875 207.976562 168.046875 Z M 207.976562 167.929688 " fill-opacity="1" fill-rule="nonzero"/></svg>